<?xml version="1.0" encoding="UTF-8"?>
<svg id="Layer_2" data-name="Layer 2" xmlns="http://www.w3.org/2000/svg" viewBox="0 0 1920 1366">
  <defs>
    <style>
      .cls-1 {
        fill: #1a242f;
      }

      .cls-2 {
        fill: #f28f3b;
      }
    </style>
  </defs>
  <g id="Layer_2-2" data-name="Layer 2">
    <rect class="cls-1" width="1920" height="1366"/>
    <g id="Layer_3" data-name="Layer 3">
      <g>
        <path class="cls-2" d="M327.06,741.26c-.74,11.33.75,27.24,3.68,38.22,1.77,6.65,7.41,14.72,8.72,20.32,3.23,13.78,2.21,25.62,8.52,39.87,4.44,10.01,15.95,21.23,19.07,28.24,5.55,12.47,4.23,22.9,13.93,36.62,7.47,10.56,17.75,15.77,26.35,23.67,5.78,5.3,11.6,19.79,17.56,27.07,14.69,17.9,26.37,19.55,44.65,29.56,11.06,6.05,20.69,17.08,33.84,23.16,12.04,5.57,19.87,4.05,30.54,7.01,10.95,3.03,20,8.37,32.52,9.53,46.16,4.25,76.52-23.68,81.05-68.69-13.67,11.63-32.25,14.62-49.87,12.77-24.78-2.58-33.96-24.78-52.36-36.9-5.28-3.48-8.72-5.33-14.98-3.29-13.87,4.52-14.9,16.82-9.89,29.23,9.86,24.36,41.33,26.26,63.64,22.92l-4.85,6.45c5.61,3.05,12.92,8.06,19.36,8.64,11.51,1.07,16.43-11.17,26.35-14.03-13.84,28.24-41.42,44.5-72.63,32.28-5.88-2.31-12.67-7.35-18.47-9.5-8.42-3.11-17.83-3.66-26.86-7.55-14.14-6.08-22.84-17.21-33.99-23.01-8.3-4.31-16.85-4.98-25.42-11.14-14.53-10.43-17.63-23.35-27.37-35.57-4.52-5.66-14.74-10.59-20.59-16.49-18.07-18.2-15.28-29.43-24.25-49.73-5.51-12.46-16.24-19.57-20.83-36.39-2.96-10.77-1.92-35.49-4.29-41.4-.86-2.15-3.99-4.53-5.25-8.01-5.34-14.69-6.5-40.5-4.86-56.32,1.38-13.39,2.49-27.52,4.28-40.88,1.32-9.9,6.27-19.45,7.31-28.18,2.21-18.67-1.38-29.08,8.1-47.81,3.21-6.35,9.83-12.61,12.44-18.76,4.35-10.25,3.89-24.04,9.15-36.02,6.51-14.8,16.27-21.16,24.16-32.83,5.09-7.52,2.43-11.27,3.35-19.24,1.53-13.31,12.05-31.45,21.34-41.03,2.28-2.34,12.74-9.69,13.49-11.23,1.94-3.9-1.88-10.65,1.38-17.98,2.93-6.6,9.23-8.07,13.75-12.08,7.52-6.68,12.17-17,21.65-23.52,10.38-7.14,19.72-7.14,29.1-11.74,12.44-6.09,17.59-18.97,36.56-22.63,1.29-.26,11.95-1.19,8.88,1.88-14.45,3.78-39.21,12.29-34.43,31.2-14.68-3.5-29.53.26-40.86,10.2-2.87,2.52-11.48,11.84-11.86,15.14-.21,1.83,7.49,5.66,9.29,5.82,4.41.41,29.64-5.85,33.01-8.54,1.74-1.38,6.33-11.83,8.93-15.02.87-1.07,12.49-12.34,9.89-5.16-1.1,3.03-11.07,16.81-9.44,19.06l53.77-16.15-4.47-14.89-12.82-1.7-7.46-3.83c4.1.03,15.64-1.97,18.64-4.23,1.05-.8,6.69-11.71,9.29-14.63,5.55-6.24,14.81-11.38,23.16-12.34,1.56-.18,7.4-.87,8.04,1.05-21.08,6.96-41.73,25.39-25.32,48.1l61.89-15.83c-.78-1.43-2.49-3.47-3.77-4.38-4.31-3.06-11.48-8.75-18.07-11.95-2.52-1.22-7.88-.63-7.19-4.1,13.24-1.16,24.03,5.72,35.01,11.87,2.24.24,2.34-3.35,4.05-5.06,1.52-1.52,6.17-2.57,5.96-4.98-5.3-15.34-26.71-27.85-42.35-28.75-10.62-.62-30.28,5.57-39.59,10.79-.99.56-1.08,2.63-2.51,3.11-4.64,1.52-18.14-.35-24.46.3-13.1,1.37-29.4,10.55-40.4,17.68-2.94,1.91-5.99,5.97-9.38,7.83-5.54,3.02-13.15,4.56-19.01,7.88-24.9,14.11-29.58,29.77-45.44,50.27-9.29,12.01-21.23,19.87-28.63,33.74-7.71,14.45-9.21,28.38-13.58,43.41-4.62,15.94-15.17,22.03-22.2,35.87-6.77,13.33-6.02,26.14-10.16,38.15-3.3,9.53-12.58,18.79-16.51,29.82-6.09,17.09-2.25,27.97-4.88,42.35-4.4,24.13-16,33.21-14.17,63.34.77,12.61.86,16.52.05,29.04ZM546.46,967.18c-.11-.03-.21-.05-.32-.08-.44-.11-.86-.21-1.28-.33-2.24-.59-4.4-1.37-6.41-2.49l-1.07-1.11c-1.46-1.13-2.78-2.48-3.89-4.1,3.56-.2,6.23,2.33,9.39,2.97,5.67,1.14,15.76-.45,17.48,5.63-4.52.5-9.39.51-13.93-.48v-.02Z"/>
        <path class="cls-2" d="M468.95,891.32c.03.87-.14,1.8,0,2.67.17.95,9.33,13.39,10.77,15.04,4.43,5.09,10.4,10.01,16.94,12.1,11.59,3.71,21.76,4.88,33.39,1.7,1.47-.41,2.81.29,2.34-1.92-8.6-10.49-19.72-18.28-29.58-27.48-22.36-20.89-43.4-41-66.69-61.29-2.46-2.15-9.2-10.34-11.32-11.3-2.66-1.2-6.92,2.03-11.12,1.61-1.58-.17-9.98-3.66-11.12-4.56-5.19-4.13-5.88-13.51-3.27-19.33.9-2.01,5.72-7.17,5.82-8.87.05-.69-4.4-11.9-5.15-12.85-1.59-2.04-2.97-.41-3.08-.59-.33-.59,1.17-2.42.54-4.25-2.13-6.33-13.34-16.81-17.54-23.38-4.25-6.65-7.11-13.99-9.84-21.34-9.05,0-15.5-4.28-22.63-9.09-1.05,15.82-2.03,35.31,5.64,49.73,2.46,4.64,8.85,12.95,14.77,11.59l-1.07,4.29,3.21-1.07c-.75,10.02,9.06,16.04,16.48,20.63,2.82,1.76,5.94,1.08,7.19,4.64-14.51,3.77-24-8.06-33.32-16.67-1.62,8.87-.84,19.4,1.37,28.2,2.33,9.32,19.36,41.12,26.67,46.48,13.25,9.71,16.01,7.73,23.14,25.26.69,1.68,1.08,2.58-1.16,2.24-6.75-7.05-12.29-15.76-20.98-20.42,3.42,9.77,5.61,19.79,12.49,27.82,15.14,17.69,37.38,22.54,59.55,17.35l-4.05,4.23c-2.78,1.28-6.41,3.92-9.38,4.37-4.68.71-10.73-.51-15.59,0,3.57,11.93,11.68,24.18,22.24,31,13.52,8.73,29.76,7.59,43.37,15.26-1.4,3.77-6.12.51-9.24.08-7.59-1.05,4.44,7.85,6.11,8.96,15.58,10.31,29.7,8.27,45.67,13.48,7.53,2.45,13.73,8.93,21.74,11.6,10.92,3.63,26.64,3.68,36.5-2.67,1.05-.68,1.92.11,1.38-2.4-5.61-.54-14.53-2.25-19.6-4.61-3.47-1.61-8.76-7.13-12.38-8.04-3.66-.92-8.22.06-12.35-.56-10.56-1.59-23.88-6.23-32.04-13.13-4.07-3.45-7.68-9.68-11.45-12.22-7.74-5.19-20.36-7.34-29.05-11.81-7.23-3.72-19.48-13.57-23.46-20.63-.47-.84-1.26-2.85-.02-3.2,14.9,12.65,30.81,23.67,51.08,24.73v-18.82c0-.23.74-.57.84-1.08-.12-1.37-10.49-2.91-13.22-3.75-27.79-8.51-26.85-26.2-48.89-37.14-5.01-2.48-13.64-4.26-18.08-6.21-5.28-2.31-14.83-19.88-21.82-24.87-5.18-3.71-10.98-4.47-16.43-7.23-2.67-1.35-3.41-5.48-7.14-3.06-.32-6.57-9.9-15.28-3.24-21.52-.71,3.23,2.34,4.25,3.27,5.88,1.77,3.11,2.1,6.9,5.42,9.63,1.49,1.22,12.98,6,14.44,6h23.13c.81,3.48-9.74,5.45-9.71,7.01,3.96,8.61,11.24,17.9,20.15,21.79,4.14,1.8,21.61,6.69,25.57,7.77h15.59c-2.78,2.34-7.4,4.53-11.84,4.31l.04-.08Z"/>
        <path class="cls-2" d="M659.28,728.1c6.27-10.4.86-25.81-1.61-36.8l-13.4-30.13c1.46,2.06,6.23,3.51,7.22,4.61,2.07,2.3,4.13,10.58,7.83,12.59v-19.9c0-5.07-5.31-21.62-7.47-26.95-.32-.8-9.29-15.53-5.99-14.45l11.3,9.68v-64.51l-8.13-.17-1.01-2-76.37,80.65c-12.64,12.44,10.91,21.44,20.21,15.11,1.71-1.17,3.24-5.75,6.14-6.5-3.56,18.49,13.61,27.64,24.64,38.28,1.16,1.11,2.73,1.55,2.24,3.66-10.59-.78-17.8-7.05-25.3-13.91-2.03-1.86-5.54-7.55-7.8-8.61-3.68-1.73-12.95-1.67-18.49-3.83-6.03-2.36-9.26-6.8-14.42-10.16-3.32,4.79-31.66,32.14-31.63,34.7.05,2.61,2.97,9.42,6.24,9.89,35.09,8.61,69.3,21.4,104.3,30.13,7.38,1.85,16.85,6.32,21.49-1.37h.01ZM619.55,621.54c-.68,5.13-1.17,10.92-1.52,16.49l-.68,17.74c-2.43.45-1.71-.11-2.4-1.37-5.96-10.95-3.71-35.61,6.69-43.79l-2.1,10.94h0Z"/>
        <path class="cls-2" d="M647.71,439.94c3.62,1.53,6.26,5.48,10.5,5.03,3.29-16.75,3.86-34.11,1.11-50.93l-2.13-.65c.05.8-.06,1.65-.77,2.13-17.27,11.78-34.82,34.4-49.78,50.03-5.09,5.31-24.04,21.86-26.37,26.32-.57,1.08-.68,2.03-.54,3.23,12.01.71,23.61-1.17,33.87-7.52,1.86,3.36-2.49,5.64-4.82,7.02-8.4,4.97-17.6,6.51-27.3,6.03l-1.31.84c-1.2,2.81-.33,5.91,1.67,8.16,20.9,13.45,42.06,26.65,64.21,37.97l8.79-6.99c-1.7-15.88-16.4-22.01-25.68-32.59,12.19.51,20.32,9.17,28.5,17.2.3.14,1.56-2.4,1.61-2.69,1.26-8.52,0-22.98,0-32.26,0-1.56-1.82-9.6-2.48-11.5-4.25-12.11-16.07-15.53-26.53-20.75.09-4.85,14.57.74,17.41,1.94h.01Z"/>
        <path class="cls-2" d="M641.31,538.82c-3.63-8.04-29.28-16.46-35.81-23.44l-2.39-.35c-10.5,4.64-25.71,17.35-26.65,29.38-.53,6.72,1.89,13.19,1.11,19.94-.48.53-3.3-.71-3.99-1.38-.66-.65-5.15-12.95-5.43-14.45-2.4-12.95,5.43-20.15,14.24-28.27,3.68-3.39,8.87-8.27,13.48-9.66,1.05-1.34-17.74-13.82-19.87-13.87-3.57-.05-7.5,3.71-10.86,4.16-3.78.51-7.49-1.7-10.41-.87-2.93.84-13.93,15.67-14.51,18.89-2,10.97.3,20.83-3.2,33.36-4.01,14.35-15.44,26.02-16.4,41.12l117.59-46.4,3.95-4.73c.14-1.25-.33-2.34-.83-3.45l-.02.02Z"/>
        <path class="cls-2" d="M543.83,747.6c-10.1-12.29-16.42-14.42-29.01-22.06-3.54-2.15-10.71-10.29-15.07-9.62l-34.01,38.27c.03,1.77,25.99,11.68,29.38,12.55,4.77,1.22,7.71,1.68,11.98-1.26l1.64,2.15c-3.66-.05-6.63,4.41-9.42,5.18-2.36.65-6.68-1.89-5.63.74.68,1.67,10.13,12.25,11.92,13.9,3.83,3.54,9.29,7.71,14.21,9.44,5.82,2.06,28.15,6.48,34.73,7.2,6.3.71,13.31-.77,19.78.12-.32,4.28-5.06,5.73-8.51,6.53-.54,1.83,0,3.24.93,4.82,1.26,2.1,12.85,12.52,15.19,13.84,2.52,1.43,18.67,7.28,20.35,5.99-14.72-22.21-30.54-43.77-45.41-65.89-4.55-6.77-8.22-15.98-13.09-21.88l.05.02Z"/>
        <path class="cls-2" d="M625.93,870.38c-.62-.39-10.04-4.37-10.67-4.49-5.46-1.04-3.53-.02-9.47-2.27-20.03-7.55-40.8-11.98-61.29-18.28-20.44-6.29-43.71-16.67-64.5-20.45-1.53-.27-3.03-.38-4.58-.26,2.72,11.89,5.01,23.91,16.48,30.3,10.47,5.84,23.67,9.18,35.69,7.34,1.08-.17,2.04-.38,2.42-1.56-.65-1.76-.99-3.47-.86-5.37.11-1.4.63-6.54,2.19-7.04,5.09,16.43,13.06,31.14,31.15,35,10.46,2.24,19.61,2.76,29.08-2.75l-2.16,4.82-7.47,7.5c14.32,16.13,36.53,29.97,56.34,13.93,2.3-1.86,6.62-4.34,5.58-8.01-5.21-4.74-13.34-25.5-17.9-28.42h-.03Z"/>
        <path class="cls-2" d="M620.82,940.46c18.35-5.85,28.36-11.95,29.88-33.01-.66-.77-11.03,8.18-12.83,9.2-25.44,14.36-38.03-.44-56.38-14.17-10.56-7.91-23.52-9.98-34.95-16.15-8.04-4.34-15.11-11.78-24.1-14.62-5.07-1.61-10.37-1.11-15.05-2.16-10.92-2.45-21.19-8.99-29.82-15.88-1.14,1.29,7.71,9.48,9.11,10.79,7.61,7.1,14.93,14.36,22.59,21.5,16.72,15.62,34.31,30.21,51.65,45.14,2.69-8.43-5.39-14.26-5.93-22.01.14-3.65,6.47,5.3,6.92,5.99,6,9.26,3.45,15.5,6.57,22.47.59,1.31,9.69,11.07,11.26,12.41,12.56,10.82,24.67,13.91,40.91,10.77,14.89-2.88,23.46-10.14,28.99-24.22-12.02,4.52-30.66,12.95-43.59,11.93-.33-.03-5.96-3.3-4.79-4.41,6.03,1.67,13.51-1.61,19.57-3.54v-.03Z"/>
        <path class="cls-2" d="M654.67,759.17c-10.38,9.21-22.29,8.4-34.68,11.66,1.76,9.17,5.42,16.88,12.43,23.16-11.77.98-15.28-14.27-20.62-22.41-1.95-2.97-7.28-10.26-9.89-12.14-2.28-1.65-10.43-5.31-13.1-5.72-7.31-1.11-12.56,3.35-19.31,3.26-4.29-.06-7.1-3.29-11.27-2.79l46.81,68.28,3.66,2.27c-2.27,3.96.33,2.61,1.14,3.9,2.64,4.28,2.3,6.27,8.69,6.39,35.78.69,39.08-32.1,41.97-60.28.8-7.73,4.16-11.03-5.82-15.58h0Z"/>
        <path class="cls-2" d="M605.6,840.16c-2-1.47-4.92.71-7.05.6-3-.15-12.31-1.37-13-3.32l-3.68,1.19c-.03-.89.26-2.24-.23-2.94-.44-.63-10.67-5.79-13.21-7.85-4.52-3.66-7.52-8.88-11.27-12.38-8.87-8.27-26.32-5.97-38.73-10.73-17.09-6.56-21.56-17.63-33.87-28.5-7.47-6.6-15.35-10.17-24.18-14.59-12.47,9.24-21.44,23.31-32.19,34.67-.81,2.52,1.1,5.82,3.12,7.37l34.94,8.09c-.18-4.25-1.82-8.48-2.39-12.68-.17-1.16-1.19-3.71.78-3.47l10.49,18.28c30.66,8.31,61.14,17.17,91.45,26.58,15.62,4.85,31.2,11.26,47.05,15.34.74.2,1.82.24,1.58-.51l-9.6-15.13-.02-.02Z"/>
        <path class="cls-2" d="M502.59,686.79c1.04-.3,7.79-4.91,8.1-5.93.5-9.98.06-19.99.2-29.98.06-4.58,3.06-13.58-1.79-16.42-8.12-4.73-21.1-5.03-28.2-13.64l-68.69,30.07.92,8.03,58.51,19.43,1.13-3.23-1.67-6.42c5.51,1.44,7.1,9.42,11.9,12.28,2.82,1.68,16.81,6.63,19.57,5.81h.02Z"/>
        <path class="cls-2" d="M475.71,463.52c2.55,12.88,6.95,25.56,9.39,38.48l8.58-6.45c1.14,5.9-3.74,9.41-5.3,14.51l10.16,32.8,47.21-46.33c6.93-13.82-7.28-23.44-17.32-29.82-3.23-2.06-23.08-13.39-24.99-11.99l-2.24,9.63c-5.67-.71-5.84-9.23-4.47-13.34-.47-2.21-13.76-7.04-16.51-7.1-9.96-.24-5.73,13.55-4.53,19.63v-.03Z"/>
        <path class="cls-2" d="M470.94,502.69c1.74,3.02,2.52,6.59,2.33,10.05l4.89-5.45-14.81-54.01-2.99-1.83c-3.63,15.08-7.95,30.1-12.61,44.93-3.99,12.74-15.4,38.22-14.14,50.11.56,5.22,3.29,11.5,4.94,16.58,1.76,5.4-.14,7.11,5.43,12.05,2.91,2.58,12.49,9.78,15.88,7.59,3.8-6.02,29.29-26.58,30.45-30.96.48-1.85-1.08-7.55-1.67-9.77-.81-3-7.25-23.35-8.39-23.88l-18.8,32.26c1.29-5.67,1.43-11.56,2.64-17.24.89-4.16,3.36-7.47,3.83-11.23.75-6.08.6-16.07-2.15-21.55,1.61-3,4.26.71,5.19,2.33h-.03Z"/>
        <path class="cls-2" d="M559.83,637.4c1.37-1.88,4.16-2.22,5.6-3.47,14.72-12.68,31.36-34.01,45.47-48.62,8.12-8.4,18.52-17.03,25.84-25.78,1.01-1.22,2.61-1.74,2.13-3.77l-118.39,48.83c-2.19,2.82-.83,10.64.15,14.03,1.41,4.89,7.77,12.88,12.58,14.32,2.09.63,15.11,2.88,15.92,1.41-.71-10.25,5.18-20.86,13.39-26.95-1.62,10.25-12.2,20.59-2.69,30.01v-.02Z"/>
        <path class="cls-2" d="M454.98,748.8c2.28.66,6.03-3.74,7.56-5.33,10.11-10.52,19-22.6,28.81-33.38-.72-2.1-3.87-2.88-4.85-4.08-2.81-3.47-8.09-14.83-10.77-16.66-21.47-6.18-42.17-16.28-63.55-22.54-1.98-.57-5.36-1.74-6.75.45-.65,1.19-.9,2.25-.53,3.59.77,2.75,7.41,13.19,9.41,16.46,3.6,5.9,10.37,16.22,15.25,20.78,1.68,1.56,5.57,4.88,7.61,4.71l8.13-5.42c-1.55,6.47-7.04,12.1-5.79,19.16.95,5.4,10.07,20.65,15.49,22.23h-.01Z"/>
        <path class="cls-2" d="M407.66,524.03c-2,.93-11.66,12.14-13.37,14.62-8.15,11.74-16.18,32.13-6.47,45.04,1.97,2.61,16.25,12.95,18.65,8.03l45.08-138.89c.9-5.88-6.65-2.58-9.44-.77-20.75,13.39-28.18,48.17-22.57,70.86.65,2.61,3.54,5.15,3.17,9.2-7.31,2.97-10.16-10.35-15.05-8.07h0Z"/>
        <path class="cls-2" d="M573.63,426.53c-7.08,5.13-16.1,4.8-21.05,12.29-1.37,4.47-3.96,30.09-1.8,31.89,4.38,1.13,7.1-2.43,11.3-3.03,2.84-.41,9.38.6,10.97-.33.57-.33,4.74-7.07,6.11-8.43,3.81-3.83,8.46-7.1,12.44-11.2,14.11-14.56,27.01-30.31,41.9-44.13l-7.98-.45c-2.01.11-6.84,4.16-8.12,1.02,5.97-4.2,31.15-9.44,31.21-17.75,0-1.43-.71-1.91-1.73-2.66l-62.74,16.21c.38,12.13-.36,19.25-10.5,26.59v-.02Z"/>
        <path class="cls-2" d="M616.94,759.99c8.63,3.6,24.69-.14,31.02-6.96,1.41-1.52,2.81-.86,2.73-4.07-.06-2.81-1.35-6.71-4.01-7.95-6.68-3.14-20.2-4.91-28.23-7.26-12.01-3.51-23.88-8.01-35.84-11.45-17.69-5.09-34.47-7.89-51.8-14.93-1.1-.45-2.31-1.65-2.7.6-.29,1.67,16.24,24.91,18.79,27.45,4.64,4.59,16.1,11.78,22.63,11.78,7.29,0,19.85-1.95,26.94-3.17,1.89-.33,3.95.03,5.85-.05l-4.29,4.29c8.21.48,11.69,8.72,18.92,11.74v-.02Z"/>
        <path class="cls-2" d="M426.49,784.86c4.88-5.16,9.02-11.48,13.42-16.69,1.47-1.76,11.57-10.37,9.69-12.35-3.84.23-5.78-2.99-7.77-5.69-5.34-7.22-10.02-19.07-12.67-27.67l-2.13,1.1c.2-2.25-.02-4.05-.84-6.17-2.19-5.63-12.97-17.23-17.08-22.18-3.48-4.19-6.56-8.79-10.59-12.53-1.35,11.03,2.04,22.04,3.62,32.94,2.37,16.3,4.19,32.76,6.87,49.06,1.34,8.09,5.22,15.98,4.02,24.48,8.3.95,8.01,1.47,13.46-4.29h0Z"/>
        <path class="cls-2" d="M357.21,715.38c8.25,8.37,12.02-.47,12.8-8.52.57-5.78-.69-11.01-1.05-16.66,11.87,4.35,6.84,19.18,7.49,28.54.54,7.85,7.14,20.44,11.62,27.09,3.02,4.47,6.57,8.97,10.98,12.13l-13.16-84.71c-8.63-1.68-11.72-4.47-15.32-12.1-1.53-3.21-1.32-4.62-3.32-7.94-1.65-2.73-2.27-5.1-5.82-6.03-.78,8.34-5.84,15.47-8.06,23.67-3.26,11.96-5.61,34.94,3.84,44.54h0Z"/>
        <path class="cls-2" d="M508.13,446.1c11.23,6.39,23.5,10.56,33.95,18.26.72-.99.56-19.97,1.13-23.08.92-4.91,7.77-13.09,11.86-16.1,9.03-6.68,26.28-6.38,20.23-21.98-1.8-1.14-30.58,5.99-34.98,7.23-3.84,1.08-16.34,4.29-18.64,6.09-4.2,3.3-1.05,5.72-1.32,9.41-.5,6.65-14.51,16.63-12.22,20.17Z"/>
        <path class="cls-2" d="M361.33,625.13c.09,7.59,3.3,14.2,9.23,18.82,4.22-7.83,10.73-13.04,19.88-11.81v-3.23l1.1,3.23c1.88-.44,2.31-2.51,2.97-4.01,1.44-3.27,7.19-19.82,6.51-22.1-1.73-5.87-16.18-12.26-22.03-12.53-11.07-.51-17.77,22.89-17.66,31.65h0Z"/>
        <path class="cls-2" d="M425.92,564.89c-6.33,12.25-10.22,30-14.72,43.35-2.85,8.46-8.67,18.41-8.39,27.1,5.22-3.48,9.53-8.04,14.12-12.23,4.13-3.75,32.13-29.17,32.62-31.38.51-2.31-5.57-4.1-7.4-5.4-8.27-5.88-15.29-13.06-14.09-24.1-1.59.11-1.64,1.67-2.16,2.67h.02Z"/>
        <path class="cls-2" d="M467.01,588.59c6.32,5.93,15.14,10.71,17.02,19.88l20.29-7.68-9.56-37.5-27.75,25.29h0Z"/>
        <path class="cls-2" d="M620,841.84c-.29,1.53.29,2.64.86,3.99.5,1.19,7.38,12.26,8.04,12.92,1.97,1.98,21.86,8.36,25.29,8.69,1.22.12,2.18.42,2.97-.83l.48-40.92-13.72,11.77-23.92,4.37h0Z"/>
        <path class="cls-2" d="M513.47,585.66c-.66-13.54,11.75-24.3,15.4-36.12,2.45-7.92,1.94-15.91,3.54-23.88-1.86-.48-2.15.77-3.23,1.61-3.8,2.93-10.47,10.11-14.03,13.93-4.32,4.64-8.37,9.62-12.7,14.29l8.45,39,2.55-8.81v-.02Z"/>
        <path class="cls-2" d="M458.26,596.1l-44.15,42.47,60.22-25.27c3.77-2.97-4.01-10.73-6.54-12.8-2.21-1.82-6.95-5.58-9.53-4.38v-.02Z"/>
        <path class="cls-2" d="M550.84,648.85c.35-2.07-.66-1.68-2.16-2.15-4.62-1.44-10.29-1.08-14.95-2.39-4.28-1.2-7.41-4.26-11.77-5.54-.86-.26-3.75-.63-1.82.86h1.52v2.15h-2.15v39.02l3.27-1.59,28.06-30.36h-.01Z"/>
        <path class="cls-2" d="M471.62,849.42c1.4.71,2.76.89,2.7-.59-5.06-3.5-5.21-24.94-7.49-26.91-9.99-1.26-22.42-8.49-32.04-8.85-1.77-.06-2.21-.48-3.45,1.35,12.08,9.06,22.15,20.74,33.77,30.19,1.77,1.44,4.59,3.84,6.51,4.8Z"/>
        <path class="cls-2" d="M381.14,643.26c-13.19,11.6,5.67,31.32,17.96,19.57,10.5-10.04-4.28-31.6-17.96-19.57Z"/>
        <path class="cls-2" d="M466.25,421.36c-21.14-4.17-19.82,28.75,1.34,21.7,5.81-1.94,3.89-3.98,4.85-7.23.17-.54,1.49-.44,1.62-.72,1.73-3.65-3.29-12.85-7.8-13.75Z"/>
        <path class="cls-2" d="M483.22,427.53c-1.25.66-3.39,2.79-3.29,4.04.18,2.09,15.95,9.33,18.62,11.17l12.32-20.89-2.43-1.41c-6.6,3.41-19.25,3.92-25.21,7.08h-.01Z"/>
        <path class="cls-2" d="M518.93,692.39c-2.52-2.84-10.56-2.88-13.12-.83-3.51,2.82-2.82,11.45.3,14.72,8.31,8.73,21.49-4.14,12.82-13.9Z"/>
        <path class="cls-2" d="M570.56,478.38c-7.11-8.25-20.32,4.94-13.13,12.59,7.52,8,20.69-3.8,13.13-12.59Z"/>
        <path class="cls-2" d="M409.45,797.91c-7.64,2.63-2.63,22.33,8.88,15.32,9.51-5.78,2.37-19.21-8.88-15.32Z"/>
        <path class="cls-2" d="M654.54,878.4c-1.47-2.96-12.23-3.32-15.65-5.37l10.49,19.07,3.48,2.43,1.68-16.13h0Z"/>
        <path class="cls-2" d="M495.09,619.44c1.94,1.13,14.9,6.09,15.8,5.15l-3.78-15.05-14.5,6.47c-.42,2.15,1.01,2.57,2.46,3.44h.02Z"/>
        <path class="cls-2" d="M495.85,694.5l-9.68-2.15,8.06,10.73c1.95.05,1.2-7.29,1.62-8.58Z"/>
      </g>
      <g>
        <path class="cls-2" d="M769.32,441.68l-12.79,34.07h-16.45l41.84-108.29h19.18l42.02,108.29h-16.99l-13.16-34.07h-43.67.01ZM809.69,430.76l-12.07-31.17c-2.75-7.07-4.56-13.49-6.39-19.76h-.36c-1.83,6.42-3.84,13.01-6.21,19.6l-12.07,31.33h37.1Z"/>
        <path class="cls-2" d="M934.85,361.68v93.99c0,6.9.18,14.78.74,20.08h-14.44l-.74-13.49h-.36c-4.94,8.67-15.71,15.26-30.15,15.26-21.37,0-37.82-15.91-37.82-39.53-.18-25.87,18.08-41.76,39.65-41.76,13.52,0,22.66,5.63,26.68,11.89h.36v-46.43s16.07,0,16.07,0ZM918.77,429.65c0-1.77-.18-4.17-.74-5.94-2.37-9-11.15-16.39-23.2-16.39-16.63,0-26.49,12.85-26.49,30.04,0,15.74,8.76,28.75,26.13,28.75,10.77,0,20.65-6.27,23.58-16.87.56-1.92.74-3.86.74-6.11v-13.49h-.02Z"/>
        <path class="cls-2" d="M1010.5,475.75l-1.28-9.8h-.56c-4.94,6.11-14.44,11.57-27.04,11.57-17.9,0-27.04-11.09-27.04-22.33,0-18.8,19-29.08,53.17-28.92v-1.61c0-6.42-2.01-17.99-20.09-17.99-8.22,0-16.81,2.25-23.02,5.78l-3.66-9.32c7.31-4.17,17.9-6.9,29.05-6.9,27.04,0,33.62,16.22,33.62,31.81v29.08c0,6.75.36,13.34,1.46,18.64h-14.62v-.02ZM1008.12,436.07c-17.54-.32-37.46,2.42-37.46,17.51,0,9.15,6.95,13.49,15.17,13.49,11.51,0,18.82-6.42,21.37-13.01.56-1.44.92-3.05.92-4.5v-13.49h0Z"/>
        <path class="cls-2" d="M1049.59,423.38c0-9.96-.36-17.99-.74-25.38h14.44l.74,13.34h.36c6.57-9.48,16.99-15.1,31.42-15.1,21.37,0,37.46,15.91,37.46,39.53,0,27.96-19.37,41.76-40.2,41.76-11.69,0-21.92-4.5-27.22-12.22h-.36v42.26h-15.89v-84.2ZM1065.48,444.1c0,2.09.36,4.02.74,5.78,2.93,9.8,12.61,16.55,24.12,16.55,16.99,0,26.86-12.22,26.86-30.04,0-15.58-9.32-28.92-26.31-28.92-10.97,0-21.19,6.9-24.3,17.51-.56,1.77-1.1,3.86-1.1,5.78v13.34h-.01Z"/>
        <path class="cls-2" d="M1172.91,375.65v22.33h23.02v10.76h-23.02v41.93c0,9.63,3.11,15.1,12.07,15.1,4.2,0,7.31-.48,9.32-.96l.74,10.61c-3.11,1.13-8.04,1.92-14.26,1.92-7.49,0-13.52-2.09-17.36-5.94-4.56-4.17-6.21-11.09-6.21-20.24v-42.41h-13.7v-10.76h13.7v-18.64l15.71-3.69h0Z"/>
        <path class="cls-2" d="M1231.94,376.15c.18,4.82-3.84,8.67-10.23,8.67-5.66,0-9.68-3.86-9.68-8.67s4.2-8.84,10.05-8.84,9.86,3.86,9.86,8.84ZM1214.03,475.75v-77.75h16.07v77.75h-16.07Z"/>
        <path class="cls-2" d="M1262.98,398l17.36,43.7c2.93,7.07,5.3,13.49,7.13,19.91h.56c2.01-6.42,4.56-12.85,7.49-19.91l17.18-43.7h16.81l-34.71,77.75h-15.35l-33.62-77.75h17.17-.02Z"/>
        <path class="cls-2" d="M1351.78,439.45c.36,19.12,14.26,27,30.33,27,11.51,0,18.46-1.77,24.49-4.02l2.75,10.11c-5.66,2.25-15.35,4.82-29.41,4.82-27.22,0-43.49-15.74-43.49-39.2s15.71-41.93,41.48-41.93c28.87,0,36.54,22.33,36.54,36.63,0,2.9-.36,5.15-.56,6.59h-62.13ZM1398.92,429.32c.18-9-4.2-22.98-22.29-22.98-16.25,0-23.38,13.18-24.67,22.98h46.96Z"/>
        <path class="cls-2" d="M853.18,667.27c-.92-15.1-2.01-33.25-1.83-46.75h-.56c-4.2,12.7-9.32,26.19-15.53,41.13l-21.74,52.54h-12.07l-19.91-51.56c-5.85-15.26-10.77-29.23-14.26-42.09h-.36c-.36,13.49-1.28,31.65-2.37,47.87l-3.29,46.43h-15.16l8.58-108.29h20.27l21.01,52.37c5.12,13.33,9.32,25.23,12.43,36.47h.56c3.11-10.92,7.49-22.81,12.97-36.47l21.92-52.37h20.27l7.67,108.29h-15.53l-3.11-47.56.03-.02Z"/>
        <path class="cls-2" d="M905.79,678.52c.36,19.12,14.26,27,30.33,27,11.51,0,18.46-1.77,24.48-4.02l2.75,10.11c-5.66,2.25-15.35,4.82-29.41,4.82-27.22,0-43.49-15.74-43.49-39.2s15.71-41.93,41.48-41.93c28.87,0,36.54,22.33,36.54,36.63,0,2.9-.36,5.15-.56,6.59h-62.13.02ZM952.93,668.39c.18-9-4.2-22.98-22.29-22.98-16.27,0-23.38,13.18-24.67,22.98h46.96Z"/>
        <path class="cls-2" d="M988.38,658.11c0-8.03-.18-14.62-.74-21.04h14.08l.74,12.53h.56c4.94-7.38,13.16-14.3,27.78-14.3,12.07,0,21.19,6.42,25.03,15.58h.36c2.75-4.34,6.21-7.71,9.86-10.11,5.3-3.54,11.15-5.46,19.55-5.46,11.69,0,29.05,6.75,29.05,33.74v45.79h-15.71v-44.01c0-14.95-6.21-23.94-19.18-23.94-9.14,0-16.27,5.94-19,12.85-.74,1.92-1.28,4.5-1.28,7.07v48.04h-15.71v-46.6c0-12.37-6.21-21.37-18.46-21.37-10.05,0-17.36,7.07-19.91,14.14-.92,2.09-1.28,4.5-1.28,6.9v46.91h-15.71v-56.71l-.03.02Z"/>
        <path class="cls-2" d="M1220.79,675.31c0,28.75-22.66,41.28-44.03,41.28-23.94,0-42.39-15.43-42.39-40.01,0-26.02,19.37-41.28,43.85-41.28s42.57,16.22,42.57,40.01h0ZM1150.63,676.1c0,17.03,11.15,29.88,26.86,29.88s26.86-12.7,26.86-30.21c0-13.18-7.49-29.88-26.49-29.88s-27.22,15.43-27.22,30.21h-.02Z"/>
        <path class="cls-2" d="M1241.06,661.32c0-9.15-.18-17.03-.74-24.27h14.08l.56,15.26h.74c4.02-10.44,13.7-17.03,24.48-17.03,1.83,0,3.11.17,4.56.48v13.33c-1.65-.32-3.29-.48-5.48-.48-11.33,0-19.37,7.55-21.56,18.16-.36,1.94-.74,4.17-.74,6.59v41.45h-15.89v-53.5h0Z"/>
        <path class="cls-2" d="M1311.22,637.07l19.37,45.95c2.01,5.15,4.2,11.24,5.66,15.91h.36c1.65-4.65,3.47-10.61,5.66-16.22l17.54-45.62h16.99l-24.12,55.42c-11.51,26.67-19.37,40.32-30.33,48.68-7.86,6.11-15.71,8.51-19.73,9.15l-4.02-11.89c4.02-1.13,9.32-3.38,14.08-6.9,4.38-3.05,9.86-8.51,13.52-15.74.74-1.44,1.28-2.57,1.28-3.38s-.36-1.94-1.1-3.69l-32.7-71.66h17.54Z"/>
        <path class="cls-2" d="M1507.82,714.82c-3.47-3.05-6.75-6.11-11.51-10.61-10.59,8.67-22.47,12.37-35.99,12.37-23.94,0-37.82-14.14-37.82-30.36,0-14.78,10.05-24.9,24.12-31.65v-.48c-6.39-7.07-10.23-14.95-10.23-22.65,0-13.18,10.77-26.67,31.24-26.67,15.35,0,27.22,9,27.22,22.98,0,11.41-7.49,20.41-27.04,28.92v.48c10.41,10.61,22.1,22.5,29.97,30.21,5.66-7.55,9.5-17.99,11.87-31.65h14.62c-3.29,17.03-8.58,30.52-17.72,40.01,6.57,6.11,12.97,12.22,20.27,19.12h-19v-.02ZM1488.45,696.18c-7.31-7.07-21.01-20.24-34.71-34.07-6.57,3.69-15.89,10.61-15.89,22.01,0,12.37,10.41,21.85,25.21,21.85,10.59,0,19.55-4.17,25.39-9.8h0ZM1450.99,630.15c0,7.71,4.02,13.66,9.32,19.43,12.43-6.26,20.47-12.05,20.47-21.2,0-6.59-4.2-13.97-14.26-13.97s-15.53,7.38-15.53,15.74h0Z"/>
        <path class="cls-2" d="M835.46,950.37c-5.85,2.57-17.54,5.15-32.52,5.15-34.71,0-60.84-19.28-60.84-54.79s26.13-56.88,64.32-56.88c15.35,0,25.03,2.9,29.23,4.82l-3.84,11.41c-6.03-2.57-14.62-4.5-24.85-4.5-28.87,0-48.05,16.22-48.05,44.66,0,26.5,17.36,43.53,47.32,43.53,9.68,0,19.55-1.77,25.95-4.5l3.29,11.09h0Z"/>
        <path class="cls-2" d="M932.84,914.38c0,28.75-22.66,41.28-44.03,41.28-23.94,0-42.39-15.43-42.39-40.01,0-26.02,19.37-41.28,43.85-41.28s42.57,16.22,42.57,40.01ZM862.68,915.18c0,17.03,11.15,29.88,26.86,29.88s26.86-12.7,26.86-30.21c0-13.18-7.49-29.88-26.49-29.88s-27.22,15.43-27.22,30.21h-.01Z"/>
        <path class="cls-2" d="M1029.31,876.14c-.36,5.63-.74,11.89-.74,21.37v45.14c0,17.83-4.02,28.75-12.61,35.51-8.58,7.07-21.01,9.32-32.16,9.32s-22.29-2.25-29.41-6.42l4.02-10.76c5.85,3.21,14.98,6.11,25.95,6.11,16.45,0,28.5-7.55,28.5-27.15v-8.67h-.36c-4.94,7.23-14.44,13.01-28.14,13.01-21.92,0-37.64-16.39-37.64-37.92,0-26.35,19.55-41.28,39.83-41.28,15.35,0,23.76,7.07,27.58,13.49h.36l.74-11.74h14.08,0ZM1012.69,906.83c0-2.42-.18-4.5-.92-6.42-2.93-8.19-10.77-14.95-22.47-14.95-15.35,0-26.31,11.41-26.31,29.4,0,15.26,8.76,27.96,26.13,27.96,9.86,0,18.82-5.46,22.29-14.45.92-2.42,1.28-5.15,1.28-7.55v-13.99Z"/>
        <path class="cls-2" d="M1054.15,897.18c0-8.03-.18-14.62-.74-21.04h14.26l.92,12.85h.36c4.38-7.38,14.62-14.62,29.23-14.62,12.25,0,31.24,6.42,31.24,33.09v46.43h-16.07v-44.83c0-12.53-5.3-22.98-20.47-22.98-10.59,0-18.82,6.59-21.56,14.47-.74,1.77-1.1,4.17-1.1,6.59v46.75h-16.07v-56.71h0Z"/>
        <path class="cls-2" d="M1173.47,854.3c.18,4.82-3.84,8.67-10.23,8.67-5.66,0-9.68-3.86-9.68-8.67s4.2-8.84,10.05-8.84,9.87,3.86,9.87,8.84h-.02ZM1155.57,953.9v-77.77h16.07v77.77h-16.07Z"/>
        <path class="cls-2" d="M1217.68,853.81v22.33h23.02v10.76h-23.02v41.93c0,9.63,3.11,15.1,12.07,15.1,4.2,0,7.31-.48,9.32-.96l.74,10.61c-3.11,1.13-8.04,1.92-14.26,1.92-7.49,0-13.52-2.09-17.36-5.94-4.56-4.17-6.21-11.09-6.21-20.24v-42.41h-13.7v-10.76h13.7v-18.64l15.71-3.69h0Z"/>
        <path class="cls-2" d="M1276.69,854.3c.18,4.82-3.84,8.67-10.23,8.67-5.66,0-9.68-3.86-9.68-8.67s4.2-8.84,10.05-8.84,9.86,3.86,9.86,8.84ZM1258.78,953.9v-77.77h16.07v77.77h-16.07Z"/>
        <path class="cls-2" d="M1381.57,914.38c0,28.75-22.66,41.28-44.03,41.28-23.94,0-42.39-15.43-42.39-40.01,0-26.02,19.37-41.28,43.85-41.28s42.57,16.22,42.57,40.01h0ZM1311.41,915.18c0,17.03,11.15,29.88,26.86,29.88s26.86-12.7,26.86-30.21c0-13.18-7.49-29.88-26.49-29.88s-27.22,15.43-27.22,30.21h-.02Z"/>
        <path class="cls-2" d="M1401.84,897.18c0-8.03-.18-14.62-.74-21.04h14.26l.92,12.85h.36c4.38-7.38,14.62-14.62,29.23-14.62,12.25,0,31.24,6.42,31.24,33.09v46.43h-16.07v-44.83c0-12.53-5.3-22.98-20.47-22.98-10.59,0-18.82,6.59-21.56,14.47-.74,1.77-1.1,4.17-1.1,6.59v46.75h-16.07v-56.71h0Z"/>
      </g>
    </g>
  </g>
</svg>