<?xml version="1.0" encoding="UTF-8"?>
<svg id="Layer_2" xmlns="http://www.w3.org/2000/svg" version="1.1" viewBox="0 0 1920 1366">
  <!-- Generator: Adobe Illustrator 29.8.2, SVG Export Plug-In . SVG Version: 2.1.1 Build 3)  -->
  <defs>
    <style>
      .st0 {
        fill: #1a242f;
      }

      .st1 {
        fill: #ca2e55;
      }

      .st2 {
        fill: #f28f3b;
      }
    </style>
  </defs>
  <rect class="st0" x="0" width="1920" height="1366"/>
  <g id="Layer_3">
    <g>
      <path class="st1" d="M327.1,741.3c-.7,11.3.8,27.2,3.7,38.2,1.8,6.6,7.4,14.7,8.7,20.3,3.2,13.8,2.2,25.6,8.5,39.9,4.4,10,16,21.2,19.1,28.2,5.6,12.5,4.2,22.9,13.9,36.6,7.5,10.6,17.8,15.8,26.4,23.7,5.8,5.3,11.6,19.8,17.6,27.1,14.7,17.9,26.4,19.6,44.6,29.6,11.1,6,20.7,17.1,33.8,23.2,12,5.6,19.9,4.1,30.5,7,11,3,20,8.4,32.5,9.5,46.2,4.2,76.5-23.7,81.1-68.7-13.7,11.6-32.2,14.6-49.9,12.8-24.8-2.6-34-24.8-52.4-36.9-5.3-3.5-8.7-5.3-15-3.3-13.9,4.5-14.9,16.8-9.9,29.2,9.9,24.4,41.3,26.3,63.6,22.9l-4.8,6.5c5.6,3,12.9,8.1,19.4,8.6,11.5,1.1,16.4-11.2,26.4-14-13.8,28.2-41.4,44.5-72.6,32.3-5.9-2.3-12.7-7.4-18.5-9.5-8.4-3.1-17.8-3.7-26.9-7.5-14.1-6.1-22.8-17.2-34-23-8.3-4.3-16.9-5-25.4-11.1-14.5-10.4-17.6-23.4-27.4-35.6-4.5-5.7-14.7-10.6-20.6-16.5-18.1-18.2-15.3-29.4-24.3-49.7-5.5-12.5-16.2-19.6-20.8-36.4-3-10.8-1.9-35.5-4.3-41.4-.9-2.1-4-4.5-5.3-8-5.3-14.7-6.5-40.5-4.9-56.3,1.4-13.4,2.5-27.5,4.3-40.9,1.3-9.9,6.3-19.4,7.3-28.2,2.2-18.7-1.4-29.1,8.1-47.8,3.2-6.3,9.8-12.6,12.4-18.8,4.4-10.2,3.9-24,9.2-36,6.5-14.8,16.3-21.2,24.2-32.8,5.1-7.5,2.4-11.3,3.3-19.2,1.5-13.3,12.1-31.5,21.3-41,2.3-2.3,12.7-9.7,13.5-11.2,1.9-3.9-1.9-10.7,1.4-18,2.9-6.6,9.2-8.1,13.7-12.1,7.5-6.7,12.2-17,21.7-23.5,10.4-7.1,19.7-7.1,29.1-11.7,12.4-6.1,17.6-19,36.6-22.6,1.3-.3,11.9-1.2,8.9,1.9-14.5,3.8-39.2,12.3-34.4,31.2-14.7-3.5-29.5.3-40.9,10.2-2.9,2.5-11.5,11.8-11.9,15.1-.2,1.8,7.5,5.7,9.3,5.8,4.4.4,29.6-5.9,33-8.5,1.7-1.4,6.3-11.8,8.9-15,.9-1.1,12.5-12.3,9.9-5.2-1.1,3-11.1,16.8-9.4,19.1l53.8-16.1-4.5-14.9-12.8-1.7-7.5-3.8c4.1,0,15.6-2,18.6-4.2,1.1-.8,6.7-11.7,9.3-14.6,5.6-6.2,14.8-11.4,23.2-12.3,1.6-.2,7.4-.9,8,1.1-21.1,7-41.7,25.4-25.3,48.1l61.9-15.8c-.8-1.4-2.5-3.5-3.8-4.4-4.3-3.1-11.5-8.7-18.1-11.9-2.5-1.2-7.9-.6-7.2-4.1,13.2-1.2,24,5.7,35,11.9,2.2.2,2.3-3.3,4.1-5.1,1.5-1.5,6.2-2.6,6-5-5.3-15.3-26.7-27.9-42.3-28.8-10.6-.6-30.3,5.6-39.6,10.8-1,.6-1.1,2.6-2.5,3.1-4.6,1.5-18.1-.3-24.5.3-13.1,1.4-29.4,10.5-40.4,17.7-2.9,1.9-6,6-9.4,7.8-5.5,3-13.1,4.6-19,7.9-24.9,14.1-29.6,29.8-45.4,50.3-9.3,12-21.2,19.9-28.6,33.7-7.7,14.5-9.2,28.4-13.6,43.4-4.6,15.9-15.2,22-22.2,35.9-6.8,13.3-6,26.1-10.2,38.1-3.3,9.5-12.6,18.8-16.5,29.8-6.1,17.1-2.3,28-4.9,42.3-4.4,24.1-16,33.2-14.2,63.3.8,12.6.9,16.5,0,29ZM546.5,967.2c-.1,0-.2,0-.3,0-.4-.1-.9-.2-1.3-.3-2.2-.6-4.4-1.4-6.4-2.5l-1.1-1.1c-1.5-1.1-2.8-2.5-3.9-4.1,3.6-.2,6.2,2.3,9.4,3,5.7,1.1,15.8-.5,17.5,5.6-4.5.5-9.4.5-13.9-.5h0Z"/>
      <path class="st1" d="M468.9,891.3c0,.9-.1,1.8,0,2.7.2.9,9.3,13.4,10.8,15,4.4,5.1,10.4,10,16.9,12.1,11.6,3.7,21.8,4.9,33.4,1.7,1.5-.4,2.8.3,2.3-1.9-8.6-10.5-19.7-18.3-29.6-27.5-22.4-20.9-43.4-41-66.7-61.3-2.5-2.1-9.2-10.3-11.3-11.3-2.7-1.2-6.9,2-11.1,1.6-1.6-.2-10-3.7-11.1-4.6-5.2-4.1-5.9-13.5-3.3-19.3.9-2,5.7-7.2,5.8-8.9,0-.7-4.4-11.9-5.1-12.8-1.6-2-3-.4-3.1-.6-.3-.6,1.2-2.4.5-4.2-2.1-6.3-13.3-16.8-17.5-23.4-4.2-6.6-7.1-14-9.8-21.3-9,0-15.5-4.3-22.6-9.1-1.1,15.8-2,35.3,5.6,49.7,2.5,4.6,8.9,13,14.8,11.6l-1.1,4.3,3.2-1.1c-.8,10,9.1,16,16.5,20.6,2.8,1.8,5.9,1.1,7.2,4.6-14.5,3.8-24-8.1-33.3-16.7-1.6,8.9-.8,19.4,1.4,28.2,2.3,9.3,19.4,41.1,26.7,46.5,13.3,9.7,16,7.7,23.1,25.3.7,1.7,1.1,2.6-1.2,2.2-6.8-7.1-12.3-15.8-21-20.4,3.4,9.8,5.6,19.8,12.5,27.8,15.1,17.7,37.4,22.5,59.5,17.3l-4.1,4.2c-2.8,1.3-6.4,3.9-9.4,4.4-4.7.7-10.7-.5-15.6,0,3.6,11.9,11.7,24.2,22.2,31,13.5,8.7,29.8,7.6,43.4,15.3-1.4,3.8-6.1.5-9.2,0-7.6-1.1,4.4,7.8,6.1,9,15.6,10.3,29.7,8.3,45.7,13.5,7.5,2.4,13.7,8.9,21.7,11.6,10.9,3.6,26.6,3.7,36.5-2.7,1.1-.7,1.9.1,1.4-2.4-5.6-.5-14.5-2.3-19.6-4.6-3.5-1.6-8.8-7.1-12.4-8-3.7-.9-8.2,0-12.4-.6-10.6-1.6-23.9-6.2-32-13.1-4.1-3.5-7.7-9.7-11.5-12.2-7.7-5.2-20.4-7.3-29.1-11.8-7.2-3.7-19.5-13.6-23.5-20.6-.5-.8-1.3-2.9,0-3.2,14.9,12.7,30.8,23.7,51.1,24.7v-18.8c0-.2.7-.6.8-1.1-.1-1.4-10.5-2.9-13.2-3.8-27.8-8.5-26.8-26.2-48.9-37.1-5-2.5-13.6-4.3-18.1-6.2-5.3-2.3-14.8-19.9-21.8-24.9-5.2-3.7-11-4.5-16.4-7.2-2.7-1.4-3.4-5.5-7.1-3.1-.3-6.6-9.9-15.3-3.2-21.5-.7,3.2,2.3,4.2,3.3,5.9,1.8,3.1,2.1,6.9,5.4,9.6,1.5,1.2,13,6,14.4,6h23.1c.8,3.5-9.7,5.4-9.7,7,4,8.6,11.2,17.9,20.2,21.8,4.1,1.8,21.6,6.7,25.6,7.8h15.6c-2.8,2.3-7.4,4.5-11.8,4.3h0Z"/>
      <path class="st1" d="M659.3,728.1c6.3-10.4.9-25.8-1.6-36.8l-13.4-30.1c1.5,2.1,6.2,3.5,7.2,4.6,2.1,2.3,4.1,10.6,7.8,12.6v-19.9c0-5.1-5.3-21.6-7.5-27-.3-.8-9.3-15.5-6-14.5l11.3,9.7v-64.5l-8.1-.2-1-2-76.4,80.6c-12.6,12.4,10.9,21.4,20.2,15.1,1.7-1.2,3.2-5.7,6.1-6.5-3.6,18.5,13.6,27.6,24.6,38.3,1.2,1.1,2.7,1.5,2.2,3.7-10.6-.8-17.8-7.1-25.3-13.9-2-1.9-5.5-7.5-7.8-8.6-3.7-1.7-13-1.7-18.5-3.8-6-2.4-9.3-6.8-14.4-10.2-3.3,4.8-31.7,32.1-31.6,34.7,0,2.6,3,9.4,6.2,9.9,35.1,8.6,69.3,21.4,104.3,30.1,7.4,1.8,16.9,6.3,21.5-1.4h0ZM619.6,621.5c-.7,5.1-1.2,10.9-1.5,16.5l-.7,17.7c-2.4.5-1.7-.1-2.4-1.4-6-11-3.7-35.6,6.7-43.8l-2.1,10.9h0Z"/>
      <path class="st1" d="M647.7,439.9c3.6,1.5,6.3,5.5,10.5,5,3.3-16.7,3.9-34.1,1.1-50.9l-2.1-.6c0,.8,0,1.7-.8,2.1-17.3,11.8-34.8,34.4-49.8,50-5.1,5.3-24,21.9-26.4,26.3-.6,1.1-.7,2-.5,3.2,12,.7,23.6-1.2,33.9-7.5,1.9,3.4-2.5,5.6-4.8,7-8.4,5-17.6,6.5-27.3,6l-1.3.8c-1.2,2.8-.3,5.9,1.7,8.2,20.9,13.4,42.1,26.7,64.2,38l8.8-7c-1.7-15.9-16.4-22-25.7-32.6,12.2.5,20.3,9.2,28.5,17.2.3.1,1.6-2.4,1.6-2.7,1.3-8.5,0-23,0-32.3s-1.8-9.6-2.5-11.5c-4.2-12.1-16.1-15.5-26.5-20.8,0-4.8,14.6.7,17.4,1.9h0Z"/>
      <path class="st1" d="M641.3,538.8c-3.6-8-29.3-16.5-35.8-23.4l-2.4-.3c-10.5,4.6-25.7,17.3-26.7,29.4-.5,6.7,1.9,13.2,1.1,19.9-.5.5-3.3-.7-4-1.4-.7-.6-5.1-13-5.4-14.5-2.4-13,5.4-20.2,14.2-28.3,3.7-3.4,8.9-8.3,13.5-9.7,1.1-1.3-17.7-13.8-19.9-13.9-3.6,0-7.5,3.7-10.9,4.2-3.8.5-7.5-1.7-10.4-.9-2.9.8-13.9,15.7-14.5,18.9-2,11,.3,20.8-3.2,33.4-4,14.3-15.4,26-16.4,41.1l117.6-46.4,3.9-4.7c.1-1.2-.3-2.3-.8-3.5h0Z"/>
      <path class="st1" d="M543.8,747.6c-10.1-12.3-16.4-14.4-29-22.1-3.5-2.1-10.7-10.3-15.1-9.6l-34,38.3c0,1.8,26,11.7,29.4,12.5,4.8,1.2,7.7,1.7,12-1.3l1.6,2.1c-3.7,0-6.6,4.4-9.4,5.2-2.4.6-6.7-1.9-5.6.7.7,1.7,10.1,12.2,11.9,13.9,3.8,3.5,9.3,7.7,14.2,9.4,5.8,2.1,28.2,6.5,34.7,7.2,6.3.7,13.3-.8,19.8.1-.3,4.3-5.1,5.7-8.5,6.5-.5,1.8,0,3.2.9,4.8,1.3,2.1,12.8,12.5,15.2,13.8,2.5,1.4,18.7,7.3,20.3,6-14.7-22.2-30.5-43.8-45.4-65.9-4.5-6.8-8.2-16-13.1-21.9h0Z"/>
      <path class="st1" d="M625.9,870.4c-.6-.4-10-4.4-10.7-4.5-5.5-1-3.5,0-9.5-2.3-20-7.5-40.8-12-61.3-18.3-20.4-6.3-43.7-16.7-64.5-20.5-1.5-.3-3-.4-4.6-.3,2.7,11.9,5,23.9,16.5,30.3,10.5,5.8,23.7,9.2,35.7,7.3,1.1-.2,2-.4,2.4-1.6-.6-1.8-1-3.5-.9-5.4.1-1.4.6-6.5,2.2-7,5.1,16.4,13.1,31.1,31.2,35,10.5,2.2,19.6,2.8,29.1-2.7l-2.2,4.8-7.5,7.5c14.3,16.1,36.5,30,56.3,13.9,2.3-1.9,6.6-4.3,5.6-8-5.2-4.7-13.3-25.5-17.9-28.4h0Z"/>
      <path class="st1" d="M620.8,940.5c18.4-5.9,28.4-11.9,29.9-33-.7-.8-11,8.2-12.8,9.2-25.4,14.4-38-.4-56.4-14.2-10.6-7.9-23.5-10-35-16.1-8-4.3-15.1-11.8-24.1-14.6-5.1-1.6-10.4-1.1-15.1-2.2-10.9-2.4-21.2-9-29.8-15.9-1.1,1.3,7.7,9.5,9.1,10.8,7.6,7.1,14.9,14.4,22.6,21.5,16.7,15.6,34.3,30.2,51.7,45.1,2.7-8.4-5.4-14.3-5.9-22,.1-3.6,6.5,5.3,6.9,6,6,9.3,3.5,15.5,6.6,22.5.6,1.3,9.7,11.1,11.3,12.4,12.6,10.8,24.7,13.9,40.9,10.8,14.9-2.9,23.5-10.1,29-24.2-12,4.5-30.7,13-43.6,11.9-.3,0-6-3.3-4.8-4.4,6,1.7,13.5-1.6,19.6-3.5h0Z"/>
      <path class="st1" d="M654.7,759.2c-10.4,9.2-22.3,8.4-34.7,11.7,1.8,9.2,5.4,16.9,12.4,23.2-11.8,1-15.3-14.3-20.6-22.4-2-3-7.3-10.3-9.9-12.1-2.3-1.7-10.4-5.3-13.1-5.7-7.3-1.1-12.6,3.3-19.3,3.3-4.3,0-7.1-3.3-11.3-2.8l46.8,68.3,3.7,2.3c-2.3,4,.3,2.6,1.1,3.9,2.6,4.3,2.3,6.3,8.7,6.4,35.8.7,39.1-32.1,42-60.3.8-7.7,4.2-11-5.8-15.6h0Z"/>
      <path class="st1" d="M605.6,840.2c-2-1.5-4.9.7-7.1.6-3-.2-12.3-1.4-13-3.3l-3.7,1.2c0-.9.3-2.2-.2-2.9-.4-.6-10.7-5.8-13.2-7.8-4.5-3.7-7.5-8.9-11.3-12.4-8.9-8.3-26.3-6-38.7-10.7-17.1-6.6-21.6-17.6-33.9-28.5-7.5-6.6-15.4-10.2-24.2-14.6-12.5,9.2-21.4,23.3-32.2,34.7-.8,2.5,1.1,5.8,3.1,7.4l34.9,8.1c-.2-4.2-1.8-8.5-2.4-12.7-.2-1.2-1.2-3.7.8-3.5l10.5,18.3c30.7,8.3,61.1,17.2,91.5,26.6,15.6,4.8,31.2,11.3,47,15.3.7.2,1.8.2,1.6-.5l-9.6-15.1h0Z"/>
      <path class="st1" d="M502.6,686.8c1-.3,7.8-4.9,8.1-5.9.5-10,0-20,.2-30,0-4.6,3.1-13.6-1.8-16.4-8.1-4.7-21.1-5-28.2-13.6l-68.7,30.1.9,8,58.5,19.4,1.1-3.2-1.7-6.4c5.5,1.4,7.1,9.4,11.9,12.3,2.8,1.7,16.8,6.6,19.6,5.8h0Z"/>
      <path class="st1" d="M475.7,463.5c2.6,12.9,6.9,25.6,9.4,38.5l8.6-6.5c1.1,5.9-3.7,9.4-5.3,14.5l10.2,32.8,47.2-46.3c6.9-13.8-7.3-23.4-17.3-29.8-3.2-2.1-23.1-13.4-25-12l-2.2,9.6c-5.7-.7-5.8-9.2-4.5-13.3-.5-2.2-13.8-7-16.5-7.1-10-.2-5.7,13.6-4.5,19.6h0Z"/>
      <path class="st1" d="M470.9,502.7c1.7,3,2.5,6.6,2.3,10.1l4.9-5.4-14.8-54-3-1.8c-3.6,15.1-8,30.1-12.6,44.9-4,12.7-15.4,38.2-14.1,50.1.6,5.2,3.3,11.5,4.9,16.6,1.8,5.4-.1,7.1,5.4,12.1,2.9,2.6,12.5,9.8,15.9,7.6,3.8-6,29.3-26.6,30.4-31,.5-1.8-1.1-7.5-1.7-9.8-.8-3-7.2-23.4-8.4-23.9l-18.8,32.3c1.3-5.7,1.4-11.6,2.6-17.2.9-4.2,3.4-7.5,3.8-11.2.8-6.1.6-16.1-2.1-21.5,1.6-3,4.3.7,5.2,2.3h0Z"/>
      <path class="st1" d="M559.8,637.4c1.4-1.9,4.2-2.2,5.6-3.5,14.7-12.7,31.4-34,45.5-48.6,8.1-8.4,18.5-17,25.8-25.8,1-1.2,2.6-1.7,2.1-3.8l-118.4,48.8c-2.2,2.8-.8,10.6.2,14,1.4,4.9,7.8,12.9,12.6,14.3,2.1.6,15.1,2.9,15.9,1.4-.7-10.2,5.2-20.9,13.4-27-1.6,10.2-12.2,20.6-2.7,30h0Z"/>
      <path class="st1" d="M455,748.8c2.3.7,6-3.7,7.6-5.3,10.1-10.5,19-22.6,28.8-33.4-.7-2.1-3.9-2.9-4.8-4.1-2.8-3.5-8.1-14.8-10.8-16.7-21.5-6.2-42.2-16.3-63.6-22.5-2-.6-5.4-1.7-6.8.5-.6,1.2-.9,2.3-.5,3.6.8,2.7,7.4,13.2,9.4,16.5,3.6,5.9,10.4,16.2,15.2,20.8,1.7,1.6,5.6,4.9,7.6,4.7l8.1-5.4c-1.5,6.5-7,12.1-5.8,19.2.9,5.4,10.1,20.6,15.5,22.2h0Z"/>
      <path class="st1" d="M407.7,524c-2,.9-11.7,12.1-13.4,14.6-8.1,11.7-16.2,32.1-6.5,45,2,2.6,16.3,13,18.7,8l45.1-138.9c.9-5.9-6.6-2.6-9.4-.8-20.8,13.4-28.2,48.2-22.6,70.9.6,2.6,3.5,5.1,3.2,9.2-7.3,3-10.2-10.4-15.1-8.1h0Z"/>
      <path class="st1" d="M573.6,426.5c-7.1,5.1-16.1,4.8-21.1,12.3-1.4,4.5-4,30.1-1.8,31.9,4.4,1.1,7.1-2.4,11.3-3,2.8-.4,9.4.6,11-.3.6-.3,4.7-7.1,6.1-8.4,3.8-3.8,8.5-7.1,12.4-11.2,14.1-14.6,27-30.3,41.9-44.1l-8-.5c-2,.1-6.8,4.2-8.1,1,6-4.2,31.2-9.4,31.2-17.8,0-1.4-.7-1.9-1.7-2.7l-62.7,16.2c.4,12.1-.4,19.3-10.5,26.6h0Z"/>
      <path class="st1" d="M616.9,760c8.6,3.6,24.7-.1,31-7,1.4-1.5,2.8-.9,2.7-4.1,0-2.8-1.4-6.7-4-8-6.7-3.1-20.2-4.9-28.2-7.3-12-3.5-23.9-8-35.8-11.5-17.7-5.1-34.5-7.9-51.8-14.9-1.1-.5-2.3-1.7-2.7.6-.3,1.7,16.2,24.9,18.8,27.4,4.6,4.6,16.1,11.8,22.6,11.8s19.9-2,26.9-3.2c1.9-.3,3.9,0,5.9,0l-4.3,4.3c8.2.5,11.7,8.7,18.9,11.7h0Z"/>
      <path class="st1" d="M426.5,784.9c4.9-5.2,9-11.5,13.4-16.7,1.5-1.8,11.6-10.4,9.7-12.4-3.8.2-5.8-3-7.8-5.7-5.3-7.2-10-19.1-12.7-27.7l-2.1,1.1c.2-2.3,0-4.1-.8-6.2-2.2-5.6-13-17.2-17.1-22.2-3.5-4.2-6.6-8.8-10.6-12.5-1.4,11,2,22,3.6,32.9,2.4,16.3,4.2,32.8,6.9,49.1,1.3,8.1,5.2,16,4,24.5,8.3.9,8,1.5,13.5-4.3h0Z"/>
      <path class="st1" d="M357.2,715.4c8.3,8.4,12-.5,12.8-8.5.6-5.8-.7-11-1.1-16.7,11.9,4.4,6.8,19.2,7.5,28.5.5,7.8,7.1,20.4,11.6,27.1,3,4.5,6.6,9,11,12.1l-13.2-84.7c-8.6-1.7-11.7-4.5-15.3-12.1-1.5-3.2-1.3-4.6-3.3-7.9-1.7-2.7-2.3-5.1-5.8-6-.8,8.3-5.8,15.5-8.1,23.7-3.3,12-5.6,34.9,3.8,44.5h0Z"/>
      <path class="st1" d="M508.1,446.1c11.2,6.4,23.5,10.6,33.9,18.3.7-1,.6-20,1.1-23.1.9-4.9,7.8-13.1,11.9-16.1,9-6.7,26.3-6.4,20.2-22-1.8-1.1-30.6,6-35,7.2-3.8,1.1-16.3,4.3-18.6,6.1-4.2,3.3-1.1,5.7-1.3,9.4-.5,6.6-14.5,16.6-12.2,20.2Z"/>
      <path class="st1" d="M361.3,625.1c0,7.6,3.3,14.2,9.2,18.8,4.2-7.8,10.7-13,19.9-11.8v-3.2l1.1,3.2c1.9-.4,2.3-2.5,3-4,1.4-3.3,7.2-19.8,6.5-22.1-1.7-5.9-16.2-12.3-22-12.5-11.1-.5-17.8,22.9-17.7,31.6h0Z"/>
      <path class="st1" d="M425.9,564.9c-6.3,12.2-10.2,30-14.7,43.4-2.9,8.5-8.7,18.4-8.4,27.1,5.2-3.5,9.5-8,14.1-12.2,4.1-3.8,32.1-29.2,32.6-31.4.5-2.3-5.6-4.1-7.4-5.4-8.3-5.9-15.3-13.1-14.1-24.1-1.6.1-1.6,1.7-2.2,2.7h0Z"/>
      <path class="st1" d="M467,588.6c6.3,5.9,15.1,10.7,17,19.9l20.3-7.7-9.6-37.5-27.7,25.3h0Z"/>
      <path class="st1" d="M620,841.8c-.3,1.5.3,2.6.9,4,.5,1.2,7.4,12.3,8,12.9,2,2,21.9,8.4,25.3,8.7,1.2.1,2.2.4,3-.8l.5-40.9-13.7,11.8-23.9,4.4h0Z"/>
      <path class="st1" d="M513.5,585.7c-.7-13.5,11.8-24.3,15.4-36.1,2.4-7.9,1.9-15.9,3.5-23.9-1.9-.5-2.1.8-3.2,1.6-3.8,2.9-10.5,10.1-14,13.9-4.3,4.6-8.4,9.6-12.7,14.3l8.4,39,2.6-8.8h0Z"/>
      <path class="st1" d="M458.3,596.1l-44.1,42.5,60.2-25.3c3.8-3-4-10.7-6.5-12.8-2.2-1.8-6.9-5.6-9.5-4.4h0Z"/>
      <path class="st1" d="M550.8,648.9c.3-2.1-.7-1.7-2.2-2.1-4.6-1.4-10.3-1.1-14.9-2.4-4.3-1.2-7.4-4.3-11.8-5.5-.9-.3-3.8-.6-1.8.9h1.5v2.1h-2.1v39l3.3-1.6,28.1-30.4h0Z"/>
      <path class="st1" d="M471.6,849.4c1.4.7,2.8.9,2.7-.6-5.1-3.5-5.2-24.9-7.5-26.9-10-1.3-22.4-8.5-32-8.9-1.8,0-2.2-.5-3.5,1.4,12.1,9.1,22.1,20.7,33.8,30.2,1.8,1.4,4.6,3.8,6.5,4.8Z"/>
      <path class="st2" d="M381.1,643.3c-13.2,11.6,5.7,31.3,18,19.6,10.5-10-4.3-31.6-18-19.6Z"/>
      <path class="st2" d="M466.2,421.4c-21.1-4.2-19.8,28.8,1.3,21.7,5.8-1.9,3.9-4,4.8-7.2.2-.5,1.5-.4,1.6-.7,1.7-3.6-3.3-12.8-7.8-13.7Z"/>
      <path class="st1" d="M483.2,427.5c-1.2.7-3.4,2.8-3.3,4,.2,2.1,16,9.3,18.6,11.2l12.3-20.9-2.4-1.4c-6.6,3.4-19.3,3.9-25.2,7.1h0Z"/>
      <path class="st2" d="M518.9,692.4c-2.5-2.8-10.6-2.9-13.1-.8-3.5,2.8-2.8,11.5.3,14.7,8.3,8.7,21.5-4.1,12.8-13.9Z"/>
      <path class="st2" d="M570.6,478.4c-7.1-8.3-20.3,4.9-13.1,12.6,7.5,8,20.7-3.8,13.1-12.6Z"/>
      <path class="st2" d="M409.4,797.9c-7.6,2.6-2.6,22.3,8.9,15.3,9.5-5.8,2.4-19.2-8.9-15.3Z"/>
      <path class="st1" d="M654.5,878.4c-1.5-3-12.2-3.3-15.7-5.4l10.5,19.1,3.5,2.4,1.7-16.1h0Z"/>
      <path class="st1" d="M495.1,619.4c1.9,1.1,14.9,6.1,15.8,5.1l-3.8-15.1-14.5,6.5c-.4,2.1,1,2.6,2.5,3.4h0Z"/>
      <path class="st1" d="M495.9,694.5l-9.7-2.1,8.1,10.7c2,0,1.2-7.3,1.6-8.6Z"/>
      <path class="st2" d="M663.5,528.4c-17-4.4-22.8,22.2-6.2,25.8,14.2,3.1,23.8-21.2,6.2-25.8Z"/>
      <path class="st2" d="M655.8,381.3c4.7,9.9,15.4-2.6,10.6-11.9-4.1-7.9-15.4,1.6-10.6,11.9Z"/>
      <path class="st2" d="M661.9,756.4c14.6-.9,3.5-30.1-7.6-19.1-3,3-1.2,4.4-.8,7.5,0,.5-.8.7-.8,1,0,3.6,6.1,10.8,9.2,10.6Z"/>
    </g>
    <g>
      <path class="st2" d="M769.3,441.7l-12.8,34.1h-16.4l41.8-108.3h19.2l42,108.3h-17l-13.2-34.1h-43.7,0ZM809.7,430.8l-12.1-31.2c-2.7-7.1-4.6-13.5-6.4-19.8h-.4c-1.8,6.4-3.8,13-6.2,19.6l-12.1,31.3h37.1Z"/>
      <path class="st2" d="M934.8,361.7v94c0,6.9.2,14.8.7,20.1h-14.4l-.7-13.5h-.4c-4.9,8.7-15.7,15.3-30.1,15.3-21.4,0-37.8-15.9-37.8-39.5-.2-25.9,18.1-41.8,39.6-41.8s22.7,5.6,26.7,11.9h.4v-46.4s16.1,0,16.1,0ZM918.8,429.6c0-1.8-.2-4.2-.7-5.9-2.4-9-11.2-16.4-23.2-16.4s-26.5,12.8-26.5,30,8.8,28.8,26.1,28.8,20.6-6.3,23.6-16.9c.6-1.9.7-3.9.7-6.1v-13.5h0Z"/>
      <path class="st2" d="M1010.5,475.7l-1.3-9.8h-.6c-4.9,6.1-14.4,11.6-27,11.6-17.9,0-27-11.1-27-22.3,0-18.8,19-29.1,53.2-28.9v-1.6c0-6.4-2-18-20.1-18s-16.8,2.3-23,5.8l-3.7-9.3c7.3-4.2,17.9-6.9,29.1-6.9,27,0,33.6,16.2,33.6,31.8v29.1c0,6.8.4,13.3,1.5,18.6h-14.6,0ZM1008.1,436.1c-17.5-.3-37.5,2.4-37.5,17.5s6.9,13.5,15.2,13.5,18.8-6.4,21.4-13c.6-1.4.9-3,.9-4.5v-13.5h0Z"/>
      <path class="st2" d="M1049.6,423.4c0-10-.4-18-.7-25.4h14.4l.7,13.3h.4c6.6-9.5,17-15.1,31.4-15.1,21.4,0,37.5,15.9,37.5,39.5s-19.4,41.8-40.2,41.8-21.9-4.5-27.2-12.2h-.4v42.3h-15.9v-84.2h0ZM1065.5,444.1c0,2.1.4,4,.7,5.8,2.9,9.8,12.6,16.6,24.1,16.6,17,0,26.9-12.2,26.9-30s-9.3-28.9-26.3-28.9-21.2,6.9-24.3,17.5c-.6,1.8-1.1,3.9-1.1,5.8v13.3h0Z"/>
      <path class="st2" d="M1172.9,375.7v22.3h23v10.8h-23v41.9c0,9.6,3.1,15.1,12.1,15.1s7.3-.5,9.3-1l.7,10.6c-3.1,1.1-8,1.9-14.3,1.9s-13.5-2.1-17.4-5.9c-4.6-4.2-6.2-11.1-6.2-20.2v-42.4h-13.7v-10.8h13.7v-18.6l15.7-3.7h0Z"/>
      <path class="st2" d="M1231.9,376.1c.2,4.8-3.8,8.7-10.2,8.7s-9.7-3.9-9.7-8.7,4.2-8.8,10.1-8.8,9.9,3.9,9.9,8.8ZM1214,475.7v-77.8h16.1v77.8h-16.1Z"/>
      <path class="st2" d="M1263,398l17.4,43.7c2.9,7.1,5.3,13.5,7.1,19.9h.6c2-6.4,4.6-12.8,7.5-19.9l17.2-43.7h16.8l-34.7,77.8h-15.4l-33.6-77.8h17.2,0Z"/>
      <path class="st2" d="M1351.8,439.4c.4,19.1,14.3,27,30.3,27s18.5-1.8,24.5-4l2.7,10.1c-5.7,2.3-15.4,4.8-29.4,4.8-27.2,0-43.5-15.7-43.5-39.2s15.7-41.9,41.5-41.9,36.5,22.3,36.5,36.6-.4,5.1-.6,6.6h-62.1ZM1398.9,429.3c.2-9-4.2-23-22.3-23s-23.4,13.2-24.7,23h47Z"/>
      <path class="st2" d="M853.2,667.3c-.9-15.1-2-33.3-1.8-46.7h-.6c-4.2,12.7-9.3,26.2-15.5,41.1l-21.7,52.5h-12.1l-19.9-51.6c-5.9-15.3-10.8-29.2-14.3-42.1h-.4c-.4,13.5-1.3,31.6-2.4,47.9l-3.3,46.4h-15.2l8.6-108.3h20.3l21,52.4c5.1,13.3,9.3,25.2,12.4,36.5h.6c3.1-10.9,7.5-22.8,13-36.5l21.9-52.4h20.3l7.7,108.3h-15.5l-3.1-47.6h0Z"/>
      <path class="st2" d="M905.8,678.5c.4,19.1,14.3,27,30.3,27s18.5-1.8,24.5-4l2.7,10.1c-5.7,2.3-15.4,4.8-29.4,4.8-27.2,0-43.5-15.7-43.5-39.2s15.7-41.9,41.5-41.9,36.5,22.3,36.5,36.6-.4,5.1-.6,6.6h-62.1,0ZM952.9,668.4c.2-9-4.2-23-22.3-23s-23.4,13.2-24.7,23h47Z"/>
      <path class="st2" d="M988.4,658.1c0-8-.2-14.6-.7-21h14.1l.7,12.5h.6c4.9-7.4,13.2-14.3,27.8-14.3s21.2,6.4,25,15.6h.4c2.7-4.3,6.2-7.7,9.9-10.1,5.3-3.5,11.2-5.5,19.6-5.5s29.1,6.8,29.1,33.7v45.8h-15.7v-44c0-14.9-6.2-23.9-19.2-23.9s-16.3,5.9-19,12.8c-.7,1.9-1.3,4.5-1.3,7.1v48h-15.7v-46.6c0-12.4-6.2-21.4-18.5-21.4s-17.4,7.1-19.9,14.1c-.9,2.1-1.3,4.5-1.3,6.9v46.9h-15.7v-56.7h0Z"/>
      <path class="st2" d="M1220.8,675.3c0,28.8-22.7,41.3-44,41.3s-42.4-15.4-42.4-40,19.4-41.3,43.8-41.3,42.6,16.2,42.6,40h0ZM1150.6,676.1c0,17,11.2,29.9,26.9,29.9s26.9-12.7,26.9-30.2-7.5-29.9-26.5-29.9-27.2,15.4-27.2,30.2h0Z"/>
      <path class="st2" d="M1241.1,661.3c0-9.2-.2-17-.7-24.3h14.1l.6,15.3h.7c4-10.4,13.7-17,24.5-17s3.1.2,4.6.5v13.3c-1.7-.3-3.3-.5-5.5-.5-11.3,0-19.4,7.5-21.6,18.2-.4,1.9-.7,4.2-.7,6.6v41.4h-15.9v-53.5h0Z"/>
      <path class="st2" d="M1311.2,637.1l19.4,46c2,5.1,4.2,11.2,5.7,15.9h.4c1.7-4.7,3.5-10.6,5.7-16.2l17.5-45.6h17l-24.1,55.4c-11.5,26.7-19.4,40.3-30.3,48.7-7.9,6.1-15.7,8.5-19.7,9.2l-4-11.9c4-1.1,9.3-3.4,14.1-6.9,4.4-3,9.9-8.5,13.5-15.7.7-1.4,1.3-2.6,1.3-3.4s-.4-1.9-1.1-3.7l-32.7-71.7h17.5Z"/>
      <path class="st2" d="M1507.8,714.8c-3.5-3-6.8-6.1-11.5-10.6-10.6,8.7-22.5,12.4-36,12.4-23.9,0-37.8-14.1-37.8-30.4s10.1-24.9,24.1-31.6v-.5c-6.4-7.1-10.2-14.9-10.2-22.6,0-13.2,10.8-26.7,31.2-26.7s27.2,9,27.2,23-7.5,20.4-27,28.9v.5c10.4,10.6,22.1,22.5,30,30.2,5.7-7.5,9.5-18,11.9-31.6h14.6c-3.3,17-8.6,30.5-17.7,40,6.6,6.1,13,12.2,20.3,19.1h-19ZM1488.4,696.2c-7.3-7.1-21-20.2-34.7-34.1-6.6,3.7-15.9,10.6-15.9,22s10.4,21.8,25.2,21.8,19.6-4.2,25.4-9.8h0ZM1451,630.2c0,7.7,4,13.7,9.3,19.4,12.4-6.3,20.5-12.1,20.5-21.2s-4.2-14-14.3-14-15.5,7.4-15.5,15.7h0Z"/>
      <path class="st2" d="M835.5,950.4c-5.9,2.6-17.5,5.1-32.5,5.1-34.7,0-60.8-19.3-60.8-54.8s26.1-56.9,64.3-56.9,25,2.9,29.2,4.8l-3.8,11.4c-6-2.6-14.6-4.5-24.9-4.5-28.9,0-48.1,16.2-48.1,44.7s17.4,43.5,47.3,43.5,19.6-1.8,25.9-4.5l3.3,11.1h0Z"/>
      <path class="st2" d="M932.8,914.4c0,28.8-22.7,41.3-44,41.3s-42.4-15.4-42.4-40,19.4-41.3,43.8-41.3,42.6,16.2,42.6,40ZM862.7,915.2c0,17,11.2,29.9,26.9,29.9s26.9-12.7,26.9-30.2-7.5-29.9-26.5-29.9-27.2,15.4-27.2,30.2h0Z"/>
      <path class="st2" d="M1029.3,876.1c-.4,5.6-.7,11.9-.7,21.4v45.1c0,17.8-4,28.8-12.6,35.5-8.6,7.1-21,9.3-32.2,9.3s-22.3-2.3-29.4-6.4l4-10.8c5.9,3.2,15,6.1,25.9,6.1,16.4,0,28.5-7.5,28.5-27.1v-8.7h-.4c-4.9,7.2-14.4,13-28.1,13-21.9,0-37.6-16.4-37.6-37.9s19.6-41.3,39.8-41.3,23.8,7.1,27.6,13.5h.4l.7-11.7h14.1,0ZM1012.7,906.8c0-2.4-.2-4.5-.9-6.4-2.9-8.2-10.8-14.9-22.5-14.9s-26.3,11.4-26.3,29.4,8.8,28,26.1,28,18.8-5.5,22.3-14.5c.9-2.4,1.3-5.1,1.3-7.5v-14h0Z"/>
      <path class="st2" d="M1054.2,897.2c0-8-.2-14.6-.7-21h14.3l.9,12.8h.4c4.4-7.4,14.6-14.6,29.2-14.6s31.2,6.4,31.2,33.1v46.4h-16.1v-44.8c0-12.5-5.3-23-20.5-23s-18.8,6.6-21.6,14.5c-.7,1.8-1.1,4.2-1.1,6.6v46.7h-16.1v-56.7h0Z"/>
      <path class="st2" d="M1173.5,854.3c.2,4.8-3.8,8.7-10.2,8.7s-9.7-3.9-9.7-8.7,4.2-8.8,10.1-8.8,9.9,3.9,9.9,8.8h0ZM1155.6,953.9v-77.8h16.1v77.8h-16.1Z"/>
      <path class="st2" d="M1217.7,853.8v22.3h23v10.8h-23v41.9c0,9.6,3.1,15.1,12.1,15.1s7.3-.5,9.3-1l.7,10.6c-3.1,1.1-8,1.9-14.3,1.9s-13.5-2.1-17.4-5.9c-4.6-4.2-6.2-11.1-6.2-20.2v-42.4h-13.7v-10.8h13.7v-18.6l15.7-3.7h0Z"/>
      <path class="st2" d="M1276.7,854.3c.2,4.8-3.8,8.7-10.2,8.7s-9.7-3.9-9.7-8.7,4.2-8.8,10.1-8.8,9.9,3.9,9.9,8.8ZM1258.8,953.9v-77.8h16.1v77.8h-16.1Z"/>
      <path class="st2" d="M1381.6,914.4c0,28.8-22.7,41.3-44,41.3s-42.4-15.4-42.4-40,19.4-41.3,43.8-41.3,42.6,16.2,42.6,40h0ZM1311.4,915.2c0,17,11.2,29.9,26.9,29.9s26.9-12.7,26.9-30.2-7.5-29.9-26.5-29.9-27.2,15.4-27.2,30.2h0Z"/>
      <path class="st2" d="M1401.8,897.2c0-8-.2-14.6-.7-21h14.3l.9,12.8h.4c4.4-7.4,14.6-14.6,29.2-14.6s31.2,6.4,31.2,33.1v46.4h-16.1v-44.8c0-12.5-5.3-23-20.5-23s-18.8,6.6-21.6,14.5c-.7,1.8-1.1,4.2-1.1,6.6v46.7h-16.1v-56.7h0Z"/>
    </g>
  </g>
</svg>