<?xml version="1.0" encoding="UTF-8"?>
<svg xmlns="http://www.w3.org/2000/svg" version="1.1" viewBox="0 0 1920 1366">
  <!-- Generator: Adobe Illustrator 29.8.2, SVG Export Plug-In . SVG Version: 2.1.1 Build 3)  -->
  <defs>
    <style>
      .st0 {
        fill: #1a242f;
      }

      .st1 {
        fill: #f28f3b;
      }

      .st2 {
        fill: #8eaca2;
      }
    </style>
  </defs>
  <g id="Layer_3">
    <rect class="st0" x="0" width="1920" height="1366"/>
  </g>
  <g id="Layer_2">
    <g id="Layer_31" data-name="Layer_3">
      <g>
        <path class="st2" d="M510.2,731.7c-.6,8.5.6,20.4,2.8,28.7,1.3,5,5.6,11,6.5,15.2,2.4,10.3,1.7,19.2,6.4,29.9,3.3,7.5,12,15.9,14.3,21.2,4.2,9.4,3.2,17.2,10.4,27.5,5.6,7.9,13.3,11.8,19.8,17.7,4.3,4,8.7,14.8,13.2,20.3,11,13.4,19.8,14.7,33.5,22.2,8.3,4.5,15.5,12.8,25.4,17.4,9,4.2,14.9,3,22.9,5.3,8.2,2.3,15,6.3,24.4,7.1,34.6,3.2,57.4-17.8,60.8-51.5-10.3,8.7-24.2,11-37.4,9.6-18.6-1.9-25.5-18.6-39.3-27.7-4-2.6-6.5-4-11.2-2.5-10.4,3.4-11.2,12.6-7.4,21.9,7.4,18.3,31,19.7,47.7,17.2l-3.6,4.8c4.2,2.3,9.7,6,14.5,6.5,8.6.8,12.3-8.4,19.8-10.5-10.4,21.2-31.1,33.4-54.5,24.2-4.4-1.7-9.5-5.5-13.9-7.1-6.3-2.3-13.4-2.7-20.1-5.7-10.6-4.6-17.1-12.9-25.5-17.3-6.2-3.2-12.6-3.7-19.1-8.4-10.9-7.8-13.2-17.5-20.5-26.7-3.4-4.2-11.1-7.9-15.4-12.4-13.6-13.7-11.5-22.1-18.2-37.3-4.1-9.3-12.2-14.7-15.6-27.3-2.2-8.1-1.4-26.6-3.2-31.1-.6-1.6-3-3.4-3.9-6-4-11-4.9-30.4-3.6-42.2,1-10,1.9-20.6,3.2-30.7,1-7.4,4.7-14.6,5.5-21.1,1.7-14-1-21.8,6.1-35.9,2.4-4.8,7.4-9.5,9.3-14.1,3.3-7.7,2.9-18,6.9-27,4.9-11.1,12.2-15.9,18.1-24.6,3.8-5.6,1.8-8.5,2.5-14.4,1.1-10,9-23.6,16-30.8,1.7-1.8,9.6-7.3,10.1-8.4,1.5-2.9-1.4-8,1-13.5,2.2-5,6.9-6.1,10.3-9.1,5.6-5,9.1-12.8,16.2-17.6,7.8-5.4,14.8-5.4,21.8-8.8,9.3-4.6,13.2-14.2,27.4-17,1-.2,9-.9,6.7,1.4-10.8,2.8-29.4,9.2-25.8,23.4-11-2.6-22.1.2-30.6,7.7-2.1,1.9-8.6,8.9-8.9,11.4-.2,1.4,5.6,4.2,7,4.4,3.3.3,22.2-4.4,24.8-6.4,1.3-1,4.7-8.9,6.7-11.3.7-.8,9.4-9.3,7.4-3.9-.8,2.3-8.3,12.6-7.1,14.3l40.3-12.1-3.4-11.2-9.6-1.3-5.6-2.9c3.1,0,11.7-1.5,14-3.2.8-.6,5-8.8,7-11,4.2-4.7,11.1-8.5,17.4-9.3,1.2-.1,5.5-.7,6,.8-15.8,5.2-31.3,19-19,36.1l46.4-11.9c-.6-1.1-1.9-2.6-2.8-3.3-3.2-2.3-8.6-6.6-13.6-9-1.9-.9-5.9-.5-5.4-3.1,9.9-.9,18,4.3,26.3,8.9,1.7.2,1.8-2.5,3-3.8,1.1-1.1,4.6-1.9,4.5-3.7-4-11.5-20-20.9-31.8-21.6-8-.5-22.7,4.2-29.7,8.1-.7.4-.8,2-1.9,2.3-3.5,1.1-13.6-.3-18.3.2-9.8,1-22,7.9-30.3,13.3-2.2,1.4-4.5,4.5-7,5.9-4.2,2.3-9.9,3.4-14.3,5.9-18.7,10.6-22.2,22.3-34.1,37.7-7,9-15.9,14.9-21.5,25.3-5.8,10.8-6.9,21.3-10.2,32.6-3.5,12-11.4,16.5-16.6,26.9-5.1,10-4.5,19.6-7.6,28.6-2.5,7.1-9.4,14.1-12.4,22.4-4.6,12.8-1.7,21-3.7,31.8-3.3,18.1-12,24.9-10.6,47.5.6,9.5.6,12.4,0,21.8ZM674.7,901.2c0,0-.2,0-.2,0-.3,0-.6-.2-1-.2-1.7-.4-3.3-1-4.8-1.9l-.8-.8c-1.1-.8-2.1-1.9-2.9-3.1,2.7-.1,4.7,1.7,7,2.2,4.3.9,11.8-.3,13.1,4.2-3.4.4-7,.4-10.4-.4h0Z"/>
        <path class="st2" d="M616.6,844.3c0,.7-.1,1.4,0,2,.1.7,7,10,8.1,11.3,3.3,3.8,7.8,7.5,12.7,9.1,8.7,2.8,16.3,3.7,25,1.3,1.1-.3,2.1.2,1.8-1.4-6.4-7.9-14.8-13.7-22.2-20.6-16.8-15.7-32.5-30.7-50-46-1.8-1.6-6.9-7.8-8.5-8.5-2-.9-5.2,1.5-8.3,1.2-1.2-.1-7.5-2.7-8.3-3.4-3.9-3.1-4.4-10.1-2.5-14.5.7-1.5,4.3-5.4,4.4-6.7,0-.5-3.3-8.9-3.9-9.6-1.2-1.5-2.2-.3-2.3-.4-.2-.4.9-1.8.4-3.2-1.6-4.7-10-12.6-13.2-17.5-3.2-5-5.3-10.5-7.4-16-6.8,0-11.6-3.2-17-6.8-.8,11.9-1.5,26.5,4.2,37.3,1.8,3.5,6.6,9.7,11.1,8.7l-.8,3.2,2.4-.8c-.6,7.5,6.8,12,12.4,15.5,2.1,1.3,4.5.8,5.4,3.5-10.9,2.8-18-6-25-12.5-1.2,6.7-.6,14.6,1,21.1,1.7,7,14.5,30.8,20,34.9,9.9,7.3,12,5.8,17.4,18.9.5,1.3.8,1.9-.9,1.7-5.1-5.3-9.2-11.8-15.7-15.3,2.6,7.3,4.2,14.8,9.4,20.9,11.4,13.3,28,16.9,44.7,13l-3,3.2c-2.1,1-4.8,2.9-7,3.3-3.5.5-8-.4-11.7,0,2.7,8.9,8.8,18.1,16.7,23.3,10.1,6.6,22.3,5.7,32.5,11.4-1,2.8-4.6.4-6.9,0-5.7-.8,3.3,5.9,4.6,6.7,11.7,7.7,22.3,6.2,34.2,10.1,5.7,1.8,10.3,6.7,16.3,8.7,8.2,2.7,20,2.8,27.4-2,.8-.5,1.4,0,1-1.8-4.2-.4-10.9-1.7-14.7-3.5-2.6-1.2-6.6-5.3-9.3-6-2.7-.7-6.2,0-9.3-.4-7.9-1.2-17.9-4.7-24-9.8-3.1-2.6-5.8-7.3-8.6-9.2-5.8-3.9-15.3-5.5-21.8-8.9-5.4-2.8-14.6-10.2-17.6-15.5-.3-.6-.9-2.1,0-2.4,11.2,9.5,23.1,17.7,38.3,18.5v-14.1c0-.2.6-.4.6-.8,0-1-7.9-2.2-9.9-2.8-20.8-6.4-20.1-19.7-36.7-27.9-3.8-1.9-10.2-3.2-13.6-4.7-4-1.7-11.1-14.9-16.4-18.6-3.9-2.8-8.2-3.4-12.3-5.4-2-1-2.6-4.1-5.4-2.3-.2-4.9-7.4-11.5-2.4-16.1-.5,2.4,1.8,3.2,2.5,4.4,1.3,2.3,1.6,5.2,4.1,7.2,1.1.9,9.7,4.5,10.8,4.5h17.3c.6,2.6-7.3,4.1-7.3,5.3,3,6.5,8.4,13.4,15.1,16.3,3.1,1.4,16.2,5,19.2,5.8h11.7c-2.1,1.8-5.5,3.4-8.9,3.2h0Z"/>
        <path class="st2" d="M759.3,721.8c4.7-7.8.6-19.4-1.2-27.6l-10.1-22.6c1.1,1.5,4.7,2.6,5.4,3.5,1.6,1.7,3.1,7.9,5.9,9.4v-14.9c0-3.8-4-16.2-5.6-20.2-.2-.6-7-11.6-4.5-10.8l8.5,7.3v-48.4h-6.1c0-.1-.8-1.6-.8-1.6l-57.3,60.5c-9.5,9.3,8.2,16.1,15.2,11.3,1.3-.9,2.4-4.3,4.6-4.9-2.7,13.9,10.2,20.7,18.5,28.7.9.8,2,1.2,1.7,2.7-7.9-.6-13.3-5.3-19-10.4-1.5-1.4-4.2-5.7-5.9-6.5-2.8-1.3-9.7-1.2-13.9-2.9-4.5-1.8-6.9-5.1-10.8-7.6-2.5,3.6-23.7,24.1-23.7,26,0,2,2.2,7.1,4.7,7.4,26.3,6.5,52,16,78.2,22.6,5.5,1.4,12.6,4.7,16.1-1h0ZM729.6,641.9c-.5,3.8-.9,8.2-1.1,12.4l-.5,13.3c-1.8.3-1.3,0-1.8-1-4.5-8.2-2.8-26.7,5-32.8l-1.6,8.2h0Z"/>
        <path class="st2" d="M750.7,505.7c2.7,1.1,4.7,4.1,7.9,3.8,2.5-12.6,2.9-25.6.8-38.2l-1.6-.5c0,.6,0,1.2-.6,1.6-13,8.8-26.1,25.8-37.3,37.5-3.8,4-18,16.4-19.8,19.7-.4.8-.5,1.5-.4,2.4,9,.5,17.7-.9,25.4-5.6,1.4,2.5-1.9,4.2-3.6,5.3-6.3,3.7-13.2,4.9-20.5,4.5l-1,.6c-.9,2.1-.2,4.4,1.2,6.1,15.7,10.1,31.5,20,48.2,28.5l6.6-5.2c-1.3-11.9-12.3-16.5-19.3-24.4,9.1.4,15.2,6.9,21.4,12.9.2.1,1.2-1.8,1.2-2,.9-6.4,0-17.2,0-24.2s-1.4-7.2-1.9-8.6c-3.2-9.1-12.1-11.6-19.9-15.6,0-3.6,10.9.6,13.1,1.5h0Z"/>
        <path class="st2" d="M745.9,579.9c-2.7-6-22-12.3-26.9-17.6l-1.8-.3c-7.9,3.5-19.3,13-20,22-.4,5,1.4,9.9.8,15-.4.4-2.5-.5-3-1-.5-.5-3.9-9.7-4.1-10.8-1.8-9.7,4.1-15.1,10.7-21.2,2.8-2.5,6.7-6.2,10.1-7.2.8-1-13.3-10.4-14.9-10.4-2.7,0-5.6,2.8-8.1,3.1-2.8.4-5.6-1.3-7.8-.7-2.2.6-10.4,11.8-10.9,14.2-1.5,8.2.2,15.6-2.4,25-3,10.8-11.6,19.5-12.3,30.8l88.2-34.8,3-3.5c.1-.9-.2-1.8-.6-2.6h0Z"/>
        <path class="st2" d="M672.8,736.5c-7.6-9.2-12.3-10.8-21.8-16.5-2.7-1.6-8-7.7-11.3-7.2l-25.5,28.7c0,1.3,19.5,8.8,22,9.4,3.6.9,5.8,1.3,9-.9l1.2,1.6c-2.7,0-5,3.3-7.1,3.9-1.8.5-5-1.4-4.2.6.5,1.2,7.6,9.2,8.9,10.4,2.9,2.7,7,5.8,10.7,7.1,4.4,1.5,21.1,4.9,26,5.4,4.7.5,10-.6,14.8,0-.2,3.2-3.8,4.3-6.4,4.9-.4,1.4,0,2.4.7,3.6.9,1.6,9.6,9.4,11.4,10.4,1.9,1.1,14,5.5,15.3,4.5-11-16.7-22.9-32.8-34.1-49.4-3.4-5.1-6.2-12-9.8-16.4h0Z"/>
        <path class="st2" d="M734.3,828.6c-.5-.3-7.5-3.3-8-3.4-4.1-.8-2.6,0-7.1-1.7-15-5.7-30.6-9-46-13.7-15.3-4.7-32.8-12.5-48.4-15.3-1.1-.2-2.3-.3-3.4-.2,2,8.9,3.8,17.9,12.4,22.7,7.9,4.4,17.7,6.9,26.8,5.5.8-.1,1.5-.3,1.8-1.2-.5-1.3-.7-2.6-.6-4,0-1,.5-4.9,1.6-5.3,3.8,12.3,9.8,23.4,23.4,26.2,7.8,1.7,14.7,2.1,21.8-2.1l-1.6,3.6-5.6,5.6c10.7,12.1,27.4,22.5,42.3,10.4,1.7-1.4,5-3.3,4.2-6-3.9-3.6-10-19.1-13.4-21.3h0Z"/>
        <path class="st2" d="M730.5,881.1c13.8-4.4,21.3-9,22.4-24.8-.5-.6-8.3,6.1-9.6,6.9-19.1,10.8-28.5-.3-42.3-10.6-7.9-5.9-17.6-7.5-26.2-12.1-6-3.3-11.3-8.8-18.1-11-3.8-1.2-7.8-.8-11.3-1.6-8.2-1.8-15.9-6.7-22.4-11.9-.9,1,5.8,7.1,6.8,8.1,5.7,5.3,11.2,10.8,16.9,16.1,12.5,11.7,25.7,22.7,38.7,33.9,2-6.3-4-10.7-4.4-16.5.1-2.7,4.9,4,5.2,4.5,4.5,6.9,2.6,11.6,4.9,16.8.4,1,7.3,8.3,8.4,9.3,9.4,8.1,18.5,10.4,30.7,8.1,11.2-2.2,17.6-7.6,21.7-18.2-9,3.4-23,9.7-32.7,8.9-.2,0-4.5-2.5-3.6-3.3,4.5,1.2,10.1-1.2,14.7-2.7h0Z"/>
        <path class="st2" d="M755.9,745.1c-7.8,6.9-16.7,6.3-26,8.7,1.3,6.9,4.1,12.7,9.3,17.4-8.8.7-11.5-10.7-15.5-16.8-1.5-2.2-5.5-7.7-7.4-9.1-1.7-1.2-7.8-4-9.8-4.3-5.5-.8-9.4,2.5-14.5,2.4-3.2,0-5.3-2.5-8.5-2.1l35.1,51.2,2.7,1.7c-1.7,3,.2,2,.9,2.9,2,3.2,1.7,4.7,6.5,4.8,26.8.5,29.3-24.1,31.5-45.2.6-5.8,3.1-8.3-4.4-11.7h0Z"/>
        <path class="st2" d="M719.1,805.9c-1.5-1.1-3.7.5-5.3.5-2.3-.1-9.2-1-9.7-2.5l-2.8.9c0-.7.2-1.7-.2-2.2-.3-.5-8-4.3-9.9-5.9-3.4-2.7-5.6-6.7-8.5-9.3-6.7-6.2-19.7-4.5-29-8-12.8-4.9-16.2-13.2-25.4-21.4-5.6-5-11.5-7.6-18.1-10.9-9.4,6.9-16.1,17.5-24.1,26-.6,1.9.8,4.4,2.3,5.5l26.2,6.1c-.1-3.2-1.4-6.4-1.8-9.5-.1-.9-.9-2.8.6-2.6l7.9,13.7c23,6.2,45.9,12.9,68.6,19.9,11.7,3.6,23.4,8.4,35.3,11.5.6.1,1.4.2,1.2-.4l-7.2-11.3h0Z"/>
        <path class="st2" d="M641.8,690.9c.8-.2,5.8-3.7,6.1-4.4.4-7.5,0-15,.1-22.5,0-3.4,2.3-10.2-1.3-12.3-6.1-3.5-15.8-3.8-21.1-10.2l-51.5,22.6.7,6,43.9,14.6.8-2.4-1.2-4.8c4.1,1.1,5.3,7.1,8.9,9.2,2.1,1.3,12.6,5,14.7,4.4h0Z"/>
        <path class="st2" d="M621.7,523.4c1.9,9.7,5.2,19.2,7,28.9l6.4-4.8c.9,4.4-2.8,7.1-4,10.9l7.6,24.6,35.4-34.7c5.2-10.4-5.5-17.6-13-22.4-2.4-1.5-17.3-10-18.7-9l-1.7,7.2c-4.3-.5-4.4-6.9-3.4-10-.3-1.7-10.3-5.3-12.4-5.3-7.5-.2-4.3,10.2-3.4,14.7h0Z"/>
        <path class="st2" d="M618.1,552.8c1.3,2.3,1.9,4.9,1.7,7.5l3.7-4.1-11.1-40.5-2.2-1.4c-2.7,11.3-6,22.6-9.5,33.7-3,9.6-11.5,28.7-10.6,37.6.4,3.9,2.5,8.6,3.7,12.4,1.3,4.1-.1,5.3,4.1,9,2.2,1.9,9.4,7.3,11.9,5.7,2.8-4.5,22-19.9,22.8-23.2.4-1.4-.8-5.7-1.2-7.3-.6-2.3-5.4-17.5-6.3-17.9l-14.1,24.2c1-4.3,1.1-8.7,2-12.9.7-3.1,2.5-5.6,2.9-8.4.6-4.6.5-12.1-1.6-16.2,1.2-2.3,3.2.5,3.9,1.7h0Z"/>
        <path class="st2" d="M684.8,653.8c1-1.4,3.1-1.7,4.2-2.6,11-9.5,23.5-25.5,34.1-36.5,6.1-6.3,13.9-12.8,19.4-19.3.8-.9,2-1.3,1.6-2.8l-88.8,36.6c-1.6,2.1-.6,8,.1,10.5,1.1,3.7,5.8,9.7,9.4,10.7,1.6.5,11.3,2.2,11.9,1.1-.5-7.7,3.9-15.6,10-20.2-1.2,7.7-9.2,15.4-2,22.5h0Z"/>
        <path class="st2" d="M606.1,737.4c1.7.5,4.5-2.8,5.7-4,7.6-7.9,14.2-17,21.6-25-.5-1.6-2.9-2.2-3.6-3.1-2.1-2.6-6.1-11.1-8.1-12.5-16.1-4.6-31.6-12.2-47.7-16.9-1.5-.4-4-1.3-5.1.3-.5.9-.7,1.7-.4,2.7.6,2.1,5.6,9.9,7.1,12.3,2.7,4.4,7.8,12.2,11.4,15.6,1.3,1.2,4.2,3.7,5.7,3.5l6.1-4.1c-1.2,4.9-5.3,9.1-4.3,14.4.7,4.1,7.6,15.5,11.6,16.7h0Z"/>
        <path class="st2" d="M570.6,568.8c-1.5.7-8.7,9.1-10,11-6.1,8.8-12.1,24.1-4.9,33.8,1.5,2,12.2,9.7,14,6l33.8-104.2c.7-4.4-5-1.9-7.1-.6-15.6,10-21.1,36.1-16.9,53.1.5,2,2.7,3.9,2.4,6.9-5.5,2.2-7.6-7.8-11.3-6.1h0Z"/>
        <path class="st2" d="M695.1,495.7c-5.3,3.8-12.1,3.6-15.8,9.2-1,3.4-3,22.6-1.4,23.9,3.3.8,5.3-1.8,8.5-2.3,2.1-.3,7,.5,8.2-.2.4-.2,3.6-5.3,4.6-6.3,2.9-2.9,6.3-5.3,9.3-8.4,10.6-10.9,20.3-22.7,31.4-33.1l-6-.3c-1.5,0-5.1,3.1-6.1.8,4.5-3.2,23.4-7.1,23.4-13.3,0-1.1-.5-1.4-1.3-2l-47.1,12.2c.3,9.1-.3,14.4-7.9,19.9h0Z"/>
        <path class="st2" d="M727.6,745.8c6.5,2.7,18.5-.1,23.3-5.2,1.1-1.1,2.1-.6,2-3.1,0-2.1-1-5-3-6-5-2.4-15.1-3.7-21.2-5.4-9-2.6-17.9-6-26.9-8.6-13.3-3.8-25.9-5.9-38.9-11.2-.8-.3-1.7-1.2-2,.5-.2,1.2,12.2,18.7,14.1,20.6,3.5,3.4,12.1,8.8,17,8.8s14.9-1.5,20.2-2.4c1.4-.2,3,0,4.4,0l-3.2,3.2c6.2.4,8.8,6.5,14.2,8.8h0Z"/>
        <path class="st2" d="M584.8,764.4c3.7-3.9,6.8-8.6,10.1-12.5,1.1-1.3,8.7-7.8,7.3-9.3-2.9.2-4.3-2.2-5.8-4.3-4-5.4-7.5-14.3-9.5-20.8l-1.6.8c.1-1.7,0-3-.6-4.6-1.6-4.2-9.7-12.9-12.8-16.6-2.6-3.1-4.9-6.6-7.9-9.4-1,8.3,1.5,16.5,2.7,24.7,1.8,12.2,3.1,24.6,5.2,36.8,1,6.1,3.9,12,3,18.4,6.2.7,6,1.1,10.1-3.2h0Z"/>
        <path class="st2" d="M532.8,712.3c6.2,6.3,9-.3,9.6-6.4.4-4.3-.5-8.3-.8-12.5,8.9,3.3,5.1,14.4,5.6,21.4.4,5.9,5.4,15.3,8.7,20.3,2.3,3.4,4.9,6.7,8.2,9.1l-9.9-63.5c-6.5-1.3-8.8-3.4-11.5-9.1-1.1-2.4-1-3.5-2.5-6-1.2-2-1.7-3.8-4.4-4.5-.6,6.3-4.4,11.6-6,17.7-2.4,9-4.2,26.2,2.9,33.4h0Z"/>
        <path class="st2" d="M646,510.3c8.4,4.8,17.6,7.9,25.5,13.7.5-.7.4-15,.8-17.3.7-3.7,5.8-9.8,8.9-12.1,6.8-5,19.7-4.8,15.2-16.5-1.4-.9-22.9,4.5-26.2,5.4-2.9.8-12.3,3.2-14,4.6-3.2,2.5-.8,4.3-1,7.1-.4,5-10.9,12.5-9.2,15.1Z"/>
        <path class="st2" d="M535.9,644.6c0,5.7,2.5,10.6,6.9,14.1,3.2-5.9,8-9.8,14.9-8.9v-2.4l.8,2.4c1.4-.3,1.7-1.9,2.2-3,1.1-2.5,5.4-14.9,4.9-16.6-1.3-4.4-12.1-9.2-16.5-9.4-8.3-.4-13.3,17.2-13.2,23.7h0Z"/>
        <path class="st2" d="M584.3,599.4c-4.7,9.2-7.7,22.5-11,32.5-2.1,6.3-6.5,13.8-6.3,20.3,3.9-2.6,7.1-6,10.6-9.2,3.1-2.8,24.1-21.9,24.5-23.5.4-1.7-4.2-3.1-5.5-4.1-6.2-4.4-11.5-9.8-10.6-18.1-1.2,0-1.2,1.2-1.6,2h0Z"/>
        <path class="st2" d="M615.1,617.2c4.7,4.4,11.4,8,12.8,14.9l15.2-5.8-7.2-28.1-20.8,19h0Z"/>
        <path class="st2" d="M729.9,807.2c-.2,1.1.2,2,.6,3,.4.9,5.5,9.2,6,9.7,1.5,1.5,16.4,6.3,19,6.5.9,0,1.6.3,2.2-.6l.4-30.7-10.3,8.8-17.9,3.3h0Z"/>
        <path class="st2" d="M650,615c-.5-10.2,8.8-18.2,11.5-27.1,1.8-5.9,1.5-11.9,2.7-17.9-1.4-.4-1.6.6-2.4,1.2-2.8,2.2-7.9,7.6-10.5,10.4-3.2,3.5-6.3,7.2-9.5,10.7l6.3,29.3,1.9-6.6h0Z"/>
        <path class="st2" d="M608.6,622.9l-33.1,31.9,45.2-19c2.8-2.2-3-8-4.9-9.6-1.7-1.4-5.2-4.2-7.1-3.3h0Z"/>
        <path class="st2" d="M678,662.4c.3-1.6-.5-1.3-1.6-1.6-3.5-1.1-7.7-.8-11.2-1.8-3.2-.9-5.6-3.2-8.8-4.2-.6-.2-2.8-.5-1.4.6h1.1v1.6h-1.6v29.3l2.5-1.2,21-22.8h0Z"/>
        <path class="st2" d="M618.6,812.8c1,.5,2.1.7,2-.4-3.8-2.6-3.9-18.7-5.6-20.2-7.5-.9-16.8-6.4-24-6.6-1.3,0-1.7-.4-2.6,1,9.1,6.8,16.6,15.6,25.3,22.6,1.3,1.1,3.4,2.9,4.9,3.6Z"/>
        <path class="st1" d="M550.7,658.2c-9.9,8.7,4.3,23.5,13.5,14.7,7.9-7.5-3.2-23.7-13.5-14.7Z"/>
        <path class="st1" d="M614.6,491.8c-15.9-3.1-14.9,21.6,1,16.3,4.4-1.5,2.9-3,3.6-5.4.1-.4,1.1-.3,1.2-.5,1.3-2.7-2.5-9.6-5.9-10.3Z"/>
        <path class="st2" d="M627.3,496.4c-.9.5-2.5,2.1-2.5,3,.1,1.6,12,7,14,8.4l9.2-15.7-1.8-1.1c-5,2.6-14.4,2.9-18.9,5.3h0Z"/>
        <path class="st1" d="M654.1,695.1c-1.9-2.1-7.9-2.2-9.8-.6-2.6,2.1-2.1,8.6.2,11,6.2,6.6,16.1-3.1,9.6-10.4Z"/>
        <path class="st1" d="M692.8,534.6c-5.3-6.2-15.2,3.7-9.8,9.4,5.6,6,15.5-2.8,9.8-9.4Z"/>
        <path class="st1" d="M572,774.2c-5.7,2-2,16.7,6.7,11.5,7.1-4.3,1.8-14.4-6.7-11.5Z"/>
        <path class="st2" d="M755.8,834.6c-1.1-2.2-9.2-2.5-11.7-4l7.9,14.3,2.6,1.8,1.3-12.1h0Z"/>
        <path class="st2" d="M636.2,640.4c1.5.8,11.2,4.6,11.9,3.9l-2.8-11.3-10.9,4.9c-.3,1.6.8,1.9,1.8,2.6h0Z"/>
        <path class="st2" d="M636.8,696.6l-7.3-1.6,6,8c1.5,0,.9-5.5,1.2-6.4Z"/>
        <path class="st1" d="M762.5,572.1c-12.7-3.3-17.1,16.7-4.6,19.4,10.6,2.3,17.9-15.9,4.6-19.4Z"/>
        <path class="st1" d="M756.7,461.7c3.5,7.4,11.6-2,8-8.9-3.1-6-11.6,1.2-8,8.9Z"/>
        <path class="st1" d="M761.3,743.1c10.9-.7,2.6-22.5-5.7-14.3-2.3,2.3-.9,3.3-.6,5.6,0,.4-.6.5-.6.7,0,2.7,4.5,8.1,6.9,7.9Z"/>
      </g>
      <g>
        <path class="st1" d="M841.9,507l-9.6,25.5h-12.3l31.4-81.2h14.4l31.5,81.2h-12.7l-9.9-25.5h-32.8,0ZM872.2,498.8l-9-23.4c-2.1-5.3-3.4-10.1-4.8-14.8h-.3c-1.4,4.8-2.9,9.8-4.7,14.7l-9,23.5h27.8Z"/>
        <path class="st1" d="M966,447v70.5c0,5.2.1,11.1.6,15.1h-10.8l-.6-10.1h-.3c-3.7,6.5-11.8,11.4-22.6,11.4-16,0-28.4-11.9-28.4-29.6-.1-19.4,13.6-31.3,29.7-31.3s17,4.2,20,8.9h.3v-34.8s12.1,0,12.1,0ZM954,498c0-1.3-.1-3.1-.6-4.5-1.8-6.8-8.4-12.3-17.4-12.3s-19.9,9.6-19.9,22.5,6.6,21.6,19.6,21.6,15.5-4.7,17.7-12.7c.4-1.4.6-2.9.6-4.6v-10.1h0Z"/>
        <path class="st1" d="M1022.8,532.6l-1-7.3h-.4c-3.7,4.6-10.8,8.7-20.3,8.7-13.4,0-20.3-8.3-20.3-16.7,0-14.1,14.2-21.8,39.9-21.7v-1.2c0-4.8-1.5-13.5-15.1-13.5s-12.6,1.7-17.3,4.3l-2.7-7c5.5-3.1,13.4-5.2,21.8-5.2,20.3,0,25.2,12.2,25.2,23.9v21.8c0,5.1.3,10,1.1,14h-11,0ZM1021,502.8c-13.2-.2-28.1,1.8-28.1,13.1s5.2,10.1,11.4,10.1,14.1-4.8,16-9.8c.4-1.1.7-2.3.7-3.4v-10.1h0Z"/>
        <path class="st1" d="M1052.1,493.3c0-7.5-.3-13.5-.6-19h10.8l.6,10h.3c4.9-7.1,12.7-11.3,23.6-11.3,16,0,28.1,11.9,28.1,29.6s-14.5,31.3-30.2,31.3-16.4-3.4-20.4-9.2h-.3v31.7h-11.9v-63.1h0ZM1064,508.8c0,1.6.3,3,.6,4.3,2.2,7.3,9.5,12.4,18.1,12.4,12.7,0,20.1-9.2,20.1-22.5s-7-21.7-19.7-21.7-15.9,5.2-18.2,13.1c-.4,1.3-.8,2.9-.8,4.3v10h0Z"/>
        <path class="st1" d="M1144.6,457.5v16.7h17.3v8.1h-17.3v31.4c0,7.2,2.3,11.3,9,11.3s5.5-.4,7-.7l.6,8c-2.3.8-6,1.4-10.7,1.4s-10.1-1.6-13-4.5c-3.4-3.1-4.7-8.3-4.7-15.2v-31.8h-10.3v-8.1h10.3v-14l11.8-2.8h0Z"/>
        <path class="st1" d="M1188.8,457.9c.1,3.6-2.9,6.5-7.7,6.5s-7.3-2.9-7.3-6.5,3.2-6.6,7.5-6.6,7.4,2.9,7.4,6.6ZM1175.4,532.6v-58.3h12.1v58.3h-12.1Z"/>
        <path class="st1" d="M1212.1,474.3l13,32.8c2.2,5.3,4,10.1,5.3,14.9h.4c1.5-4.8,3.4-9.6,5.6-14.9l12.9-32.8h12.6l-26,58.3h-11.5l-25.2-58.3h12.9,0Z"/>
        <path class="st1" d="M1278.7,505.4c.3,14.3,10.7,20.2,22.7,20.2s13.8-1.3,18.4-3l2.1,7.6c-4.2,1.7-11.5,3.6-22.1,3.6-20.4,0-32.6-11.8-32.6-29.4s11.8-31.4,31.1-31.4,27.4,16.7,27.4,27.5-.3,3.9-.4,4.9h-46.6ZM1314.1,497.8c.1-6.8-3.2-17.2-16.7-17.2s-17.5,9.9-18.5,17.2h35.2Z"/>
        <path class="st1" d="M904.8,676.2c-.7-11.3-1.5-24.9-1.4-35.1h-.4c-3.2,9.5-7,19.6-11.6,30.9l-16.3,39.4h-9l-14.9-38.7c-4.4-11.4-8.1-21.9-10.7-31.6h-.3c-.3,10.1-1,23.7-1.8,35.9l-2.5,34.8h-11.4l6.4-81.2h15.2l15.8,39.3c3.8,10,7,18.9,9.3,27.3h.4c2.3-8.2,5.6-17.1,9.7-27.3l16.4-39.3h15.2l5.8,81.2h-11.6l-2.3-35.7h0Z"/>
        <path class="st1" d="M944.2,684.7c.3,14.3,10.7,20.2,22.7,20.2s13.8-1.3,18.4-3l2.1,7.6c-4.2,1.7-11.5,3.6-22.1,3.6-20.4,0-32.6-11.8-32.6-29.4s11.8-31.4,31.1-31.4,27.4,16.7,27.4,27.5-.3,3.9-.4,4.9h-46.6,0ZM979.6,677.1c.1-6.8-3.2-17.2-16.7-17.2s-17.5,9.9-18.5,17.2h35.2Z"/>
        <path class="st1" d="M1006.2,669.4c0-6-.1-11-.6-15.8h10.6l.6,9.4h.4c3.7-5.5,9.9-10.7,20.8-10.7s15.9,4.8,18.8,11.7h.3c2.1-3.3,4.7-5.8,7.4-7.6,4-2.7,8.4-4.1,14.7-4.1s21.8,5.1,21.8,25.3v34.3h-11.8v-33c0-11.2-4.7-18-14.4-18s-12.2,4.5-14.2,9.6c-.6,1.4-1,3.4-1,5.3v36h-11.8v-34.9c0-9.3-4.7-16-13.8-16s-13,5.3-14.9,10.6c-.7,1.6-1,3.4-1,5.2v35.2h-11.8v-42.5h0Z"/>
        <path class="st1" d="M1180.5,682.3c0,21.6-17,31-33,31s-31.8-11.6-31.8-30,14.5-31,32.9-31,31.9,12.2,31.9,30h0ZM1127.9,682.9c0,12.8,8.4,22.4,20.1,22.4s20.1-9.5,20.1-22.7-5.6-22.4-19.9-22.4-20.4,11.6-20.4,22.7h0Z"/>
        <path class="st1" d="M1195.7,671.8c0-6.9-.1-12.8-.6-18.2h10.6l.4,11.4h.6c3-7.8,10.3-12.8,18.4-12.8s2.3.1,3.4.4v10c-1.2-.2-2.5-.4-4.1-.4-8.5,0-14.5,5.7-16.2,13.6-.3,1.5-.6,3.1-.6,4.9v31.1h-11.9v-40.1h0Z"/>
        <path class="st1" d="M1248.3,653.6l14.5,34.5c1.5,3.9,3.2,8.4,4.2,11.9h.3c1.2-3.5,2.6-8,4.2-12.2l13.2-34.2h12.7l-18.1,41.6c-8.6,20-14.5,30.2-22.7,36.5-5.9,4.6-11.8,6.4-14.8,6.9l-3-8.9c3-.8,7-2.5,10.6-5.2,3.3-2.3,7.4-6.4,10.1-11.8.6-1.1,1-1.9,1-2.5s-.3-1.5-.8-2.8l-24.5-53.7h13.2Z"/>
        <path class="st1" d="M1395.8,711.9c-2.6-2.3-5.1-4.6-8.6-8-7.9,6.5-16.8,9.3-27,9.3-18,0-28.4-10.6-28.4-22.8s7.5-18.7,18.1-23.7v-.4c-4.8-5.3-7.7-11.2-7.7-17,0-9.9,8.1-20,23.4-20s20.4,6.8,20.4,17.2-5.6,15.3-20.3,21.7v.4c7.8,8,16.6,16.9,22.5,22.7,4.2-5.7,7.1-13.5,8.9-23.7h11c-2.5,12.8-6.4,22.9-13.3,30,4.9,4.6,9.7,9.2,15.2,14.3h-14.2ZM1381.2,697.9c-5.5-5.3-15.8-15.2-26-25.5-4.9,2.8-11.9,8-11.9,16.5s7.8,16.4,18.9,16.4,14.7-3.1,19-7.3h0ZM1353.1,648.4c0,5.8,3,10.2,7,14.6,9.3-4.7,15.4-9,15.4-15.9s-3.2-10.5-10.7-10.5-11.6,5.5-11.6,11.8h0Z"/>
        <path class="st1" d="M891.5,888.5c-4.4,1.9-13.2,3.9-24.4,3.9-26,0-45.6-14.5-45.6-41.1s19.6-42.7,48.2-42.7,18.8,2.2,21.9,3.6l-2.9,8.6c-4.5-1.9-11-3.4-18.6-3.4-21.7,0-36,12.2-36,33.5s13,32.7,35.5,32.7,14.7-1.3,19.5-3.4l2.5,8.3h0Z"/>
        <path class="st1" d="M964.5,861.6c0,21.6-17,31-33,31s-31.8-11.6-31.8-30,14.5-31,32.9-31,31.9,12.2,31.9,30ZM911.9,862.2c0,12.8,8.4,22.4,20.1,22.4s20.1-9.5,20.1-22.7-5.6-22.4-19.9-22.4-20.4,11.6-20.4,22.7h0Z"/>
        <path class="st1" d="M1036.9,832.9c-.3,4.2-.6,8.9-.6,16v33.9c0,13.4-3,21.6-9.5,26.6-6.4,5.3-15.8,7-24.1,7s-16.7-1.7-22.1-4.8l3-8.1c4.4,2.4,11.2,4.6,19.5,4.6,12.3,0,21.4-5.7,21.4-20.4v-6.5h-.3c-3.7,5.4-10.8,9.8-21.1,9.8-16.4,0-28.2-12.3-28.2-28.4s14.7-31,29.9-31,17.8,5.3,20.7,10.1h.3l.6-8.8h10.6,0ZM1024.4,855.9c0-1.8-.1-3.4-.7-4.8-2.2-6.1-8.1-11.2-16.8-11.2s-19.7,8.6-19.7,22,6.6,21,19.6,21,14.1-4.1,16.7-10.8c.7-1.8,1-3.9,1-5.7v-10.5h0Z"/>
        <path class="st1" d="M1055.5,848.7c0-6-.1-11-.6-15.8h10.7l.7,9.6h.3c3.3-5.5,11-11,21.9-11s23.4,4.8,23.4,24.8v34.8h-12.1v-33.6c0-9.4-4-17.2-15.4-17.2s-14.1,4.9-16.2,10.8c-.6,1.3-.8,3.1-.8,4.9v35.1h-12.1v-42.5h0Z"/>
        <path class="st1" d="M1145,816.5c.1,3.6-2.9,6.5-7.7,6.5s-7.3-2.9-7.3-6.5,3.2-6.6,7.5-6.6,7.4,2.9,7.4,6.6h0ZM1131.6,891.2v-58.3h12.1v58.3h-12.1Z"/>
        <path class="st1" d="M1178.1,816.1v16.7h17.3v8.1h-17.3v31.4c0,7.2,2.3,11.3,9,11.3s5.5-.4,7-.7l.6,8c-2.3.8-6,1.4-10.7,1.4s-10.1-1.6-13-4.5c-3.4-3.1-4.7-8.3-4.7-15.2v-31.8h-10.3v-8.1h10.3v-14l11.8-2.8h0Z"/>
        <path class="st1" d="M1222.4,816.5c.1,3.6-2.9,6.5-7.7,6.5s-7.3-2.9-7.3-6.5,3.2-6.6,7.5-6.6,7.4,2.9,7.4,6.6ZM1209,891.2v-58.3h12.1v58.3h-12.1Z"/>
        <path class="st1" d="M1301.1,861.6c0,21.6-17,31-33,31s-31.8-11.6-31.8-30,14.5-31,32.9-31,31.9,12.2,31.9,30h0ZM1248.4,862.2c0,12.8,8.4,22.4,20.1,22.4s20.1-9.5,20.1-22.7-5.6-22.4-19.9-22.4-20.4,11.6-20.4,22.7h0Z"/>
        <path class="st1" d="M1316.3,848.7c0-6-.1-11-.6-15.8h10.7l.7,9.6h.3c3.3-5.5,11-11,21.9-11s23.4,4.8,23.4,24.8v34.8h-12.1v-33.6c0-9.4-4-17.2-15.4-17.2s-14.1,4.9-16.2,10.8c-.6,1.3-.8,3.1-.8,4.9v35.1h-12.1v-42.5h0Z"/>
      </g>
    </g>
  </g>
</svg>